<?xml version="1.0" encoding="UTF-8"?>
<svg version="1.1" xmlns="http://www.w3.org/2000/svg" width="481" height="519">
<path d="M0 0 C7.29806869 5.98441632 12.44038951 13.35550335 13.38220215 22.85507202 C13.59263269 27.62732851 13.58036288 32.39984982 13.57421875 37.17578125 C13.58668731 38.95022445 13.60102795 40.72465537 13.61714172 42.49906921 C13.65503502 47.15508584 13.67032638 51.81089052 13.67993164 56.46704102 C13.69971921 63.90652918 13.75700137 71.34585713 13.80869484 78.78517723 C13.82385546 81.36398665 13.83119785 83.94271487 13.83683777 86.52156067 C13.86780189 95.06307716 14.08334224 103.49622435 15 112 C19.39722778 103.53400342 19.39722778 103.53400342 22.9375 94.6875 C25.18375865 88.21790382 28.12973197 82.10523772 31.07666016 75.93505859 C32.56443293 72.81710857 34.03463354 69.69103266 35.5 66.5625 C35.9316748 65.64307617 35.9316748 65.64307617 36.37207031 64.70507812 C38.20894835 60.76861771 39.96216577 56.80274697 41.67651367 52.81152344 C49.88918397 33.70218532 49.88918397 33.70218532 56 27 C56.70125 26.21625 57.4025 25.4325 58.125 24.625 C71.64514067 12.28052373 88.11170493 5.13281115 106.56640625 5.65234375 C116.68898695 6.67726944 126.51276327 8.68422671 134 16 C134.9075 16.804375 135.815 17.60875 136.75 18.4375 C142.59287696 25.09188765 144.13351482 31.48280613 144.1875 40.25 C144.20167969 41.28640625 144.21585937 42.3228125 144.23046875 43.390625 C143.71037263 51.53585918 141.5843582 58.76246205 138.4375 66.25 C137.91893433 67.517229 137.91893433 67.517229 137.38989258 68.81005859 C136.26923789 71.54398545 135.13594729 74.27239458 134 77 C132.78701111 79.92041328 131.57582043 82.84152135 130.36938477 85.76464844 C129.60424245 87.61641613 128.83421 89.46617394 128.05834961 91.31347656 C125.95958951 96.37712154 124.22101087 101.42547548 122.70385742 106.69140625 C121.70509515 109.96726337 120.40503592 113.03592363 119.0625 116.1875 C116.43639857 122.51674507 114.61358981 128.80495072 112.9453125 135.45703125 C111.61842316 140.43012475 109.87232853 145.20962753 108 150 C108.33 150.33 108.66 150.66 109 151 C109.73605469 150.19175781 110.47210938 149.38351563 111.23046875 148.55078125 C112.21608409 147.47129779 113.20176465 146.39187388 114.1875 145.3125 C114.67025391 144.78205078 115.15300781 144.25160156 115.65039062 143.70507812 C119.24566154 139.77199652 122.96757882 135.99213089 126.7734375 132.26171875 C132.4068206 126.72451536 137.57860596 120.90230833 142.375 114.625 C152.58613921 101.43466427 163.06259445 91.23263395 180 88 C189.05762969 86.87288256 199.21154034 86.67105392 207 92 C214.36233022 98.78928929 217.4688263 104.36121628 218.1640625 114.359375 C218.53081682 125.09527432 214.22132154 132.87678375 209 142 C208.26053974 143.31313885 207.522331 144.62698299 206.78515625 145.94140625 C205.2291304 148.71574367 203.66911524 151.48776333 202.10546875 154.2578125 C200.46812077 157.16173351 198.85309764 160.07700177 197.25 163 C195.38732154 166.36813092 193.37707367 169.61864509 191.31445312 172.8671875 C190.04673398 174.92417013 188.8648917 177.00665668 187.703125 179.125 C185.43011281 183.24063155 183.09961003 187.31994675 180.75146484 191.39306641 C175.3520822 200.76779939 170.1415515 210.21432521 165.14599609 219.80957031 C163.89580672 222.19915257 162.63074616 224.58047566 161.36328125 226.9609375 C160.91742676 227.80060059 160.47157227 228.64026367 160.01220703 229.50537109 C159.15964002 231.11088708 158.30528966 232.71545799 157.44873047 234.31884766 C154.73162738 239.45463074 152.31672625 244.67333422 150 250 C149.49597656 251.1034375 148.99195313 252.206875 148.47265625 253.34375 C143.15292881 265.25050836 139.84762619 277.44621646 136.76879883 290.09277344 C134.14357616 300.87377679 131.46474246 311.18940329 126.40625 321.1328125 C124.88322459 323.9849348 124.88322459 323.9849348 124.1875 327.25 C122.86348944 331.43108599 120.94907822 334.63383889 118.6328125 338.33203125 C117.01004367 340.98358893 115.56347803 343.68238224 114.125 346.4375 C110.91805266 352.3612136 107.07837285 357.65072575 103 363 C102.13530497 364.14705122 101.27072626 365.29419014 100.40625 366.44140625 C99.52165976 367.60739827 98.63625523 368.77277301 97.75 369.9375 C97.1317334 370.75323486 97.1317334 370.75323486 96.50097656 371.58544922 C94.18246417 374.60252394 91.85139402 377.47152026 89 380 C88.34 380 87.68 380 87 380 C86.6596875 380.8353125 86.6596875 380.8353125 86.3125 381.6875 C84.62449964 384.66159588 82.53323483 386.72008865 80 389 C79.34 389 78.68 389 78 389 C77.67 389.99 77.34 390.98 77 392 C75.62060547 393.27099609 75.62060547 393.27099609 73.8671875 394.5234375 C73.22523438 394.9875 72.58328125 395.4515625 71.921875 395.9296875 C71.24640625 396.40664063 70.5709375 396.88359375 69.875 397.375 C69.22273438 397.84421875 68.57046875 398.3134375 67.8984375 398.796875 C66.58101606 399.74311818 65.26009053 400.68450088 63.93579102 401.62109375 C62.69261604 402.50663446 61.45784487 403.40416155 60.23413086 404.31640625 C55.97589991 407.46930401 51.56915646 409.92750107 46.8125 412.25 C46.11447266 412.600625 45.41644531 412.95125 44.69726562 413.3125 C41.47134592 414.90857826 38.52809897 416.21262979 35 417 C35.04640625 417.75023437 35.0928125 418.50046875 35.140625 419.2734375 C35.44763562 427.97938151 34.2803933 434.75478514 28.875 441.75 C10.96439321 455.76699662 -9.1730144 456.49707197 -31 454.4375 C-40.21205182 453.13630947 -48.84631358 450.004281 -57.5703125 446.85986328 C-59.94992207 446.01772251 -62.34305984 445.23717563 -64.74609375 444.46484375 C-68.38097019 443.26201265 -71.72644065 441.7779929 -75.125 440 C-78.27524843 438.37714475 -81.34798625 436.85600569 -84.625 435.5 C-103.16057772 427.26196546 -115.14043544 414.42391691 -123 396 C-125.4233851 386.89556978 -124.63682671 377.30904706 -119.91015625 369.109375 C-118.98895523 367.70626455 -118.00155991 366.34692539 -117 365 C-118.92901252 360.92764023 -120.80296559 357.1155291 -123.5 353.5 C-125.20989432 351.20616388 -126.59278426 348.9579332 -127.828125 346.37890625 C-130.14990007 341.64513731 -132.69074355 337.04613475 -135.25 332.4375 C-138.32435397 326.88497127 -141.37862879 321.32703573 -144.31884766 315.70214844 C-145.28891277 313.85735631 -146.27946358 312.02518094 -147.27734375 310.1953125 C-148.29923755 308.29982694 -149.28580657 306.38340745 -150.19140625 304.4296875 C-155.93984519 293.53990548 -171.45434533 288.73338042 -181.96484375 283.57421875 C-185.80022473 281.58495423 -189.5302634 279.446578 -193.25 277.25 C-193.91926514 276.86062256 -194.58853027 276.47124512 -195.27807617 276.07006836 C-196.88816208 275.10452333 -198.4497324 274.05892596 -200 273 C-200 272.34 -200 271.68 -200 271 C-200.66 270.814375 -201.32 270.62875 -202 270.4375 C-205.5958325 268.71449693 -208.09516842 266.45727118 -211.0234375 263.78125 C-213.12122123 261.83905818 -213.12122123 261.83905818 -216.0625 259.6875 C-223.83111273 252.5800458 -228.52890417 244.46505739 -229 234 C-229.15184045 226.53451109 -226.76152372 222.58247608 -222 217 C-221.34 216.01 -220.68 215.02 -220 214 C-219.34 214 -218.68 214 -218 214 C-217.77183594 213.42894531 -217.54367188 212.85789063 -217.30859375 212.26953125 C-210.03243354 199.65028027 -192.34720859 192.72982041 -179 189 C-167.8569748 186.41587156 -157.72935659 188.84887562 -147 192 C-145.67162109 192.36351562 -145.67162109 192.36351562 -144.31640625 192.734375 C-126.22701422 198.71333088 -109.25326292 217.30639043 -98 232 C-98 232.66 -98 233.32 -98 234 C-97.34 234 -96.68 234 -96 234 C-95.85304687 233.12214844 -95.85304687 233.12214844 -95.703125 232.2265625 C-94.82396751 227.17898587 -93.82039588 222.19134361 -92.62667847 217.20791626 C-89.85506857 205.45194071 -88.31403627 193.60596985 -86.875 181.625 C-86.68123276 180.04294266 -86.68123276 180.04294266 -86.48355103 178.42892456 C-84.47166543 161.97411309 -82.79877861 145.56371394 -82 129 C-81.92555664 127.60031982 -81.92555664 127.60031982 -81.84960938 126.17236328 C-81.26473562 115.01882071 -80.98785793 103.86509245 -80.7890625 92.69921875 C-80.75073505 90.64436844 -80.71240495 88.58951818 -80.67407227 86.53466797 C-80.59862597 82.46216058 -80.53577185 78.38971668 -80.48022461 74.31689453 C-80.16794666 54.85258855 -78.71064179 35.47808886 -67 19 C-66.01 18.67 -65.02 18.34 -64 18 C-63.29605388 16.68596724 -62.63654342 15.3479743 -62 14 C-48.47206056 -4.69765542 -20.09940563 -11.03982132 0 0 Z " fill="#FCFCFC" transform="translate(246,28)"/>
<path d="M0 0 C7.29806869 5.98441632 12.44038951 13.35550335 13.38220215 22.85507202 C13.59263269 27.62732851 13.58036288 32.39984982 13.57421875 37.17578125 C13.58668731 38.95022445 13.60102795 40.72465537 13.61714172 42.49906921 C13.65503502 47.15508584 13.67032638 51.81089052 13.67993164 56.46704102 C13.69971921 63.90652918 13.75700137 71.34585713 13.80869484 78.78517723 C13.82385546 81.36398665 13.83119785 83.94271487 13.83683777 86.52156067 C13.86780189 95.06307716 14.08334224 103.49622435 15 112 C19.39722778 103.53400342 19.39722778 103.53400342 22.9375 94.6875 C25.18375865 88.21790382 28.12973197 82.10523772 31.07666016 75.93505859 C32.56443293 72.81710857 34.03463354 69.69103266 35.5 66.5625 C35.9316748 65.64307617 35.9316748 65.64307617 36.37207031 64.70507812 C38.20894835 60.76861771 39.96216577 56.80274697 41.67651367 52.81152344 C49.88918397 33.70218532 49.88918397 33.70218532 56 27 C56.70125 26.21625 57.4025 25.4325 58.125 24.625 C71.64514067 12.28052373 88.11170493 5.13281115 106.56640625 5.65234375 C116.68898695 6.67726944 126.51276327 8.68422671 134 16 C134.9075 16.804375 135.815 17.60875 136.75 18.4375 C142.59287696 25.09188765 144.13351482 31.48280613 144.1875 40.25 C144.20167969 41.28640625 144.21585937 42.3228125 144.23046875 43.390625 C143.71037263 51.53585918 141.5843582 58.76246205 138.4375 66.25 C137.91893433 67.517229 137.91893433 67.517229 137.38989258 68.81005859 C136.26923789 71.54398545 135.13594729 74.27239458 134 77 C132.78701111 79.92041328 131.57582043 82.84152135 130.36938477 85.76464844 C129.60424245 87.61641613 128.83421 89.46617394 128.05834961 91.31347656 C125.95958951 96.37712154 124.22101087 101.42547548 122.70385742 106.69140625 C121.70509515 109.96726337 120.40503592 113.03592363 119.0625 116.1875 C116.43639857 122.51674507 114.61358981 128.80495072 112.9453125 135.45703125 C111.61842316 140.43012475 109.87232853 145.20962753 108 150 C108.33 150.33 108.66 150.66 109 151 C109.73605469 150.19175781 110.47210938 149.38351563 111.23046875 148.55078125 C112.21608409 147.47129779 113.20176465 146.39187388 114.1875 145.3125 C114.67025391 144.78205078 115.15300781 144.25160156 115.65039062 143.70507812 C119.24566154 139.77199652 122.96757882 135.99213089 126.7734375 132.26171875 C132.4068206 126.72451536 137.57860596 120.90230833 142.375 114.625 C152.58613921 101.43466427 163.06259445 91.23263395 180 88 C189.05762969 86.87288256 199.21154034 86.67105392 207 92 C214.36233022 98.78928929 217.4688263 104.36121628 218.1640625 114.359375 C218.53081682 125.09527432 214.22132154 132.87678375 209 142 C208.26053974 143.31313885 207.522331 144.62698299 206.78515625 145.94140625 C205.2291304 148.71574367 203.66911524 151.48776333 202.10546875 154.2578125 C200.46812077 157.16173351 198.85309764 160.07700177 197.25 163 C195.38732154 166.36813092 193.37707367 169.61864509 191.31445312 172.8671875 C190.04673398 174.92417013 188.8648917 177.00665668 187.703125 179.125 C185.43011281 183.24063155 183.09961003 187.31994675 180.75146484 191.39306641 C175.3520822 200.76779939 170.1415515 210.21432521 165.14599609 219.80957031 C163.89580672 222.19915257 162.63074616 224.58047566 161.36328125 226.9609375 C160.91742676 227.80060059 160.47157227 228.64026367 160.01220703 229.50537109 C159.15964002 231.11088708 158.30528966 232.71545799 157.44873047 234.31884766 C154.73162738 239.45463074 152.31672625 244.67333422 150 250 C149.49597656 251.1034375 148.99195313 252.206875 148.47265625 253.34375 C143.15292881 265.25050836 139.84762619 277.44621646 136.76879883 290.09277344 C134.14357616 300.87377679 131.46474246 311.18940329 126.40625 321.1328125 C124.88322459 323.9849348 124.88322459 323.9849348 124.1875 327.25 C122.86348944 331.43108599 120.94907822 334.63383889 118.6328125 338.33203125 C117.01004367 340.98358893 115.56347803 343.68238224 114.125 346.4375 C110.91805266 352.3612136 107.07837285 357.65072575 103 363 C102.13530497 364.14705122 101.27072626 365.29419014 100.40625 366.44140625 C99.52165976 367.60739827 98.63625523 368.77277301 97.75 369.9375 C97.1317334 370.75323486 97.1317334 370.75323486 96.50097656 371.58544922 C94.18246417 374.60252394 91.85139402 377.47152026 89 380 C88.34 380 87.68 380 87 380 C86.6596875 380.8353125 86.6596875 380.8353125 86.3125 381.6875 C84.62449964 384.66159588 82.53323483 386.72008865 80 389 C79.34 389 78.68 389 78 389 C77.67 389.99 77.34 390.98 77 392 C75.62060547 393.27099609 75.62060547 393.27099609 73.8671875 394.5234375 C73.22523438 394.9875 72.58328125 395.4515625 71.921875 395.9296875 C71.24640625 396.40664063 70.5709375 396.88359375 69.875 397.375 C69.22273438 397.84421875 68.57046875 398.3134375 67.8984375 398.796875 C66.58101606 399.74311818 65.26009053 400.68450088 63.93579102 401.62109375 C62.69261604 402.50663446 61.45784487 403.40416155 60.23413086 404.31640625 C55.97589991 407.46930401 51.56915646 409.92750107 46.8125 412.25 C46.11447266 412.600625 45.41644531 412.95125 44.69726562 413.3125 C41.47134592 414.90857826 38.52809897 416.21262979 35 417 C35.04640625 417.75023437 35.0928125 418.50046875 35.140625 419.2734375 C35.44763562 427.97938151 34.2803933 434.75478514 28.875 441.75 C10.96439321 455.76699662 -9.1730144 456.49707197 -31 454.4375 C-40.21205182 453.13630947 -48.84631358 450.004281 -57.5703125 446.85986328 C-59.94992207 446.01772251 -62.34305984 445.23717563 -64.74609375 444.46484375 C-68.38097019 443.26201265 -71.72644065 441.7779929 -75.125 440 C-78.27524843 438.37714475 -81.34798625 436.85600569 -84.625 435.5 C-103.16057772 427.26196546 -115.14043544 414.42391691 -123 396 C-125.4233851 386.89556978 -124.63682671 377.30904706 -119.91015625 369.109375 C-118.98895523 367.70626455 -118.00155991 366.34692539 -117 365 C-118.92901252 360.92764023 -120.80296559 357.1155291 -123.5 353.5 C-125.20989432 351.20616388 -126.59278426 348.9579332 -127.828125 346.37890625 C-130.14990007 341.64513731 -132.69074355 337.04613475 -135.25 332.4375 C-138.32435397 326.88497127 -141.37862879 321.32703573 -144.31884766 315.70214844 C-145.28891277 313.85735631 -146.27946358 312.02518094 -147.27734375 310.1953125 C-148.29923755 308.29982694 -149.28580657 306.38340745 -150.19140625 304.4296875 C-155.93984519 293.53990548 -171.45434533 288.73338042 -181.96484375 283.57421875 C-185.80022473 281.58495423 -189.5302634 279.446578 -193.25 277.25 C-193.91926514 276.86062256 -194.58853027 276.47124512 -195.27807617 276.07006836 C-196.88816208 275.10452333 -198.4497324 274.05892596 -200 273 C-200 272.34 -200 271.68 -200 271 C-200.66 270.814375 -201.32 270.62875 -202 270.4375 C-205.5958325 268.71449693 -208.09516842 266.45727118 -211.0234375 263.78125 C-213.12122123 261.83905818 -213.12122123 261.83905818 -216.0625 259.6875 C-223.83111273 252.5800458 -228.52890417 244.46505739 -229 234 C-229.15184045 226.53451109 -226.76152372 222.58247608 -222 217 C-221.34 216.01 -220.68 215.02 -220 214 C-219.34 214 -218.68 214 -218 214 C-217.77183594 213.42894531 -217.54367188 212.85789063 -217.30859375 212.26953125 C-210.03243354 199.65028027 -192.34720859 192.72982041 -179 189 C-167.8569748 186.41587156 -157.72935659 188.84887562 -147 192 C-145.67162109 192.36351562 -145.67162109 192.36351562 -144.31640625 192.734375 C-126.22701422 198.71333088 -109.25326292 217.30639043 -98 232 C-98 232.66 -98 233.32 -98 234 C-97.34 234 -96.68 234 -96 234 C-95.85304687 233.12214844 -95.85304687 233.12214844 -95.703125 232.2265625 C-94.82396751 227.17898587 -93.82039588 222.19134361 -92.62667847 217.20791626 C-89.85506857 205.45194071 -88.31403627 193.60596985 -86.875 181.625 C-86.68123276 180.04294266 -86.68123276 180.04294266 -86.48355103 178.42892456 C-84.47166543 161.97411309 -82.79877861 145.56371394 -82 129 C-81.92555664 127.60031982 -81.92555664 127.60031982 -81.84960938 126.17236328 C-81.26473562 115.01882071 -80.98785793 103.86509245 -80.7890625 92.69921875 C-80.75073505 90.64436844 -80.71240495 88.58951818 -80.67407227 86.53466797 C-80.59862597 82.46216058 -80.53577185 78.38971668 -80.48022461 74.31689453 C-80.16794666 54.85258855 -78.71064179 35.47808886 -67 19 C-66.01 18.67 -65.02 18.34 -64 18 C-63.29605388 16.68596724 -62.63654342 15.3479743 -62 14 C-48.47206056 -4.69765542 -20.09940563 -11.03982132 0 0 Z M-55.25 25.625 C-64.75275924 38.09015788 -67.25115885 51.82839022 -67.52072144 67.034338 C-67.56347732 69.4417474 -67.61748869 71.84869173 -67.67407227 74.2558136 C-67.79283072 79.39951549 -67.89678819 84.54346669 -68 89.6875 C-68.59405644 118.82756843 -69.43434607 147.82058693 -73.12231445 176.77099609 C-73.44327992 179.29546037 -73.75069027 181.82133216 -74.05664062 184.34765625 C-75.97863638 199.97485742 -78.60398913 215.30501321 -82.47949219 230.56982422 C-83.00828222 232.65770157 -83.52410984 234.7485153 -84.0390625 236.83984375 C-84.37945253 238.1981063 -84.72057077 239.55618661 -85.0625 240.9140625 C-85.36285156 242.1098291 -85.66320312 243.3055957 -85.97265625 244.53759766 C-87.0817279 248.27544323 -88.20944929 251.53352425 -90 255 C-93.6875 255.9375 -93.6875 255.9375 -97 256 C-98.09054688 254.51113281 -98.09054688 254.51113281 -99.203125 252.9921875 C-108.45379849 240.45290346 -117.78446138 227.82806143 -130 218 C-130.91072266 217.24203125 -130.91072266 217.24203125 -131.83984375 216.46875 C-145.99631368 205.21540393 -159.97421735 199.98088484 -178 202 C-182.37012314 203.13012063 -186.08183409 204.77793306 -190 207 C-190.76183594 207.4228125 -191.52367187 207.845625 -192.30859375 208.28125 C-200.13264287 213.0788844 -212.87632057 222.32723677 -215.71484375 231.24609375 C-216.23771275 236.39222552 -215.89499458 239.48380846 -213 244 C-212.34 244 -211.68 244 -211 244 C-210.73429199 244.59039062 -210.46858398 245.18078125 -210.19482422 245.7890625 C-206.65576402 252.33784247 -199.86750435 256.84699744 -193.875 261 C-193.13942871 261.51401367 -192.40385742 262.02802734 -191.64599609 262.55761719 C-181.08258167 270.47203632 -181.08258167 270.47203632 -169 274 C-169 274.66 -169 275.32 -169 276 C-168.46109131 276.235979 -167.92218262 276.47195801 -167.36694336 276.71508789 C-164.88273918 277.81429564 -162.41040692 278.93812007 -159.9375 280.0625 C-159.08994141 280.43310547 -158.24238281 280.80371094 -157.36914062 281.18554688 C-147.8563069 285.55630832 -142.67011155 291.759551 -137.5 300.6875 C-136.99791016 301.53691162 -136.49582031 302.38632324 -135.97851562 303.26147461 C-131.60726297 310.74810999 -127.55370475 318.40137229 -123.5 326.0625 C-115.25149128 341.64861023 -106.67776618 356.70601278 -95 370 C-94.43152344 370.7115625 -93.86304688 371.423125 -93.27734375 372.15625 C-84.94558041 382.39860683 -72.63581696 389.94549008 -60.19018555 394.17797852 C-57.72901389 395.10170664 -55.40844663 396.21691336 -53.0390625 397.35546875 C-46.96840886 400.13323131 -40.80752638 402.00492289 -34.375 403.75 C-33.30765625 404.05292969 -32.2403125 404.35585938 -31.140625 404.66796875 C-25.73999023 406.1607732 -20.57098775 407.29214362 -14.98852539 407.76074219 C-13 408 -13 408 -9.66015625 409.03125 C4.47726719 412.77306538 19.35160252 410.99662364 32 404 C33.14082031 403.51273437 34.28164063 403.02546875 35.45703125 402.5234375 C61.27547052 391.42179327 82.73184538 370.22587112 98 347 C98.3825293 346.42056641 98.76505859 345.84113281 99.15917969 345.24414062 C104.12141171 337.62100158 108.23274089 329.71445422 112 321.4375 C112.38615479 320.5923584 112.77230957 319.7472168 113.17016602 318.87646484 C115.06750636 314.58417737 116.51053813 310.71871837 117 306 C117.66 306 118.32 306 119 306 C119.23074219 305.05382812 119.46148437 304.10765625 119.69921875 303.1328125 C121.73389239 294.85854364 123.89232494 286.6309505 126.22021484 278.43408203 C127.38595124 274.30814106 128.40906031 270.19288678 129.3125 266 C130.82443213 259.67656621 133.55350124 253.91557798 136.30786133 248.05273438 C136.826427 246.94188477 136.826427 246.94188477 137.35546875 245.80859375 C137.67153076 245.14657959 137.98759277 244.48456543 138.31323242 243.80249023 C139.17802135 241.854247 139.17802135 241.854247 139 239 C139.66 239 140.32 239 141 239 C141.27392578 238.29979736 141.54785156 237.59959473 141.83007812 236.87817383 C145.19543292 228.51882405 149.21790048 220.60238356 153.5 212.6875 C154.20918721 211.36855488 154.91825114 210.04954347 155.62719727 208.73046875 C172.85460836 176.75207319 172.85460836 176.75207319 182 163.23046875 C184.1101147 159.82213895 185.84905399 156.33660868 187.61230469 152.7409668 C190.6206382 146.79892592 194.03496189 141.07178911 197.359375 135.30273438 C204.11331878 123.90262125 204.11331878 123.90262125 205 111 C203.24318129 106.83911358 200.67300073 104.57110051 197 102 C188.42285974 99.14095325 179.6998198 100.69065717 171.69921875 104.4765625 C162.2831559 109.79098292 155.83334102 118.82137839 149 127 C142.45235373 134.83588237 135.79498025 142.37702501 128.49975586 149.52978516 C125.73900086 152.24022364 123.0990731 154.95722268 120.625 157.9375 C115.48376574 164.02063977 109.35668138 169.24450622 103.49291992 174.61474609 C94.50498939 182.95448736 93.7188364 202.48457054 91.34912109 214.23193359 C90.83885661 216.75192814 90.32196793 219.27050042 89.8046875 221.7890625 C89.57650833 222.93902206 89.57650833 222.93902206 89.34371948 224.11221313 C88.61233062 227.66861462 87.871979 230.86286403 86 234 C84.86602053 226.93303995 84.81385018 219.89790979 84.81469727 212.75610352 C84.81251585 210.7024241 84.79432107 208.64928764 84.77539062 206.59570312 C84.74224618 198.82429884 85.38342447 191.59581759 87 184 C87.21480098 182.62435969 87.41752205 181.24675329 87.60546875 179.8671875 C90.39939624 160.28775325 96.63470652 141.50205205 103.06689453 122.85766602 C103.43411621 121.78701904 103.80133789 120.71637207 104.1796875 119.61328125 C104.50694824 118.67266846 104.83420898 117.73205566 105.17138672 116.76293945 C106.04319757 113.85596142 106.5625426 111.00053748 107 108 C107.66 108 108.32 108 109 108 C109.29390625 106.83210938 109.29390625 106.83210938 109.59375 105.640625 C112.08010761 96.33821808 115.46294286 87.56130207 119.109375 78.65625 C120.91310061 74.25106496 122.54791922 69.80069336 124.1328125 65.3125 C125.02898595 62.92270414 126.05315533 60.62831038 127.125 58.3125 C131.08314222 49.50797104 132.48727491 40.6702356 130 31.1875 C125.96644829 24.75902696 120.10464512 21.33457233 112.82421875 19.47265625 C99.67147553 17.27143643 87.91075223 19.59640887 76.6875 26.75 C64.54727799 35.41930214 58.12293254 45.70158669 52.4375 59.3125 C51.58244554 61.31974243 50.72557979 63.32621396 49.8671875 65.33203125 C49.41182617 66.39760254 48.95646484 67.46317383 48.48730469 68.56103516 C45.74444047 74.90312074 42.90007558 81.19985727 40.0625 87.5 C24.78517362 121.42533577 13.28213784 150.86618471 12.4375 188.375 C12.39418263 190.19011141 12.35056479 192.00521567 12.30664062 193.8203125 C12.2009712 198.21346719 12.09933961 202.60669781 12 207 C9.19890927 198.57707402 7.05567568 190.36152693 5.875 181.5625 C5.70887207 180.32878662 5.54274414 179.09507324 5.37158203 177.82397461 C3.2485885 160.7459207 3.06731879 143.48534153 2.54418945 126.30252075 C2.50898193 125.14823578 2.47377441 123.99395081 2.4375 122.8046875 C2.40293701 121.66659637 2.36837402 120.52850525 2.33276367 119.35592651 C2.06901111 111.10630709 1.55133306 102.91394272 0.875 94.6875 C0.07182909 84.66796111 -0.05392954 74.71883006 -0.01953125 64.671875 C-0.01532166 63.38678543 -0.01111206 62.10169586 -0.0067749 60.77766418 C0.02146261 54.25639304 0.07608133 47.73634228 0.16162109 41.21557617 C0.18208935 38.7986664 0.20243952 36.38175563 0.22265625 33.96484375 C0.24450485 32.8474884 0.26635345 31.73013306 0.28886414 30.57891846 C0.32434947 24.96968785 0.28238772 20.79138705 -3 16 C-8.93301422 10.20182701 -14.03913197 7.85977281 -22.1875 7.5 C-35.93986345 7.87850542 -46.48894398 15.51991834 -55.25 25.625 Z " fill="#0E0E0E" transform="translate(246,28)"/>
<path d="M0 0 C3.25301796 1.3931403 5.03386216 2.94960155 7.25 5.6875 C21.72186269 22.63240252 43.00025918 31.4095662 63.98925781 37.41455078 C66.06224143 38.01812226 68.12068958 38.65901189 70.1796875 39.30859375 C90.35317511 45.61484178 109.05192327 46.40146191 130 46 C130.18050729 51.40769743 129.57920298 53.7944365 126 58 C123.50443472 60.06963947 120.89767165 61.55599363 118 63 C117.2265625 63.39574219 116.453125 63.79148437 115.65625 64.19921875 C99.92724235 70.79152343 79.88521732 67.83278695 64 63 C63.12021484 62.73687012 62.24042969 62.47374023 61.33398438 62.20263672 C38.47734914 55.20546512 13.26953985 45.30521174 0.65234375 23.69140625 C-2.61965398 17.29986947 -3.6789621 12.10646996 -3 5 C-1.5 1.875 -1.5 1.875 0 0 Z " fill="#F7F7F7" transform="translate(138,403)"/>
<path d="M0 0 C3.125 0.25 3.125 0.25 5 1.3125 C6.73729378 4.30450595 6.31075427 6.83282243 6.125 10.25 C5.20703125 13.6171875 5.20703125 13.6171875 3.9375 17.125 C3.46983317 18.45083049 3.00509414 19.7776966 2.54296875 21.10546875 C2.30497559 21.78786621 2.06698242 22.47026367 1.82177734 23.17333984 C0.68467643 26.56233085 -0.27502909 29.99910529 -1.25 33.4375 C-3.82531708 42.39786657 -6.90722017 51.15984544 -10.05371094 59.93310547 C-10.80938269 62.06489052 -11.53958398 64.20301954 -12.2578125 66.34765625 C-17.17683015 80.81080563 -17.17683015 80.81080563 -20.875 84.25 C-24.5625 84.875 -24.5625 84.875 -27.875 84.25 C-30.21686102 81.90813898 -30.18941955 81.37651711 -30.23828125 78.1875 C-30.11680992 72.90613802 -28.379887 68.92535871 -26.0625 64.25 C-23.61877675 59.15927815 -21.39698866 54.16137322 -19.68139648 48.77685547 C-18.72350808 45.77529781 -17.70390307 42.79731422 -16.68359375 39.81640625 C-15.8931186 37.48180827 -15.10275621 35.1471721 -14.3125 32.8125 C-13.71405273 31.06743164 -13.71405273 31.06743164 -13.10351562 29.28710938 C-11.10556473 23.35996624 -9.35681215 17.58753491 -8.35791016 11.40625 C-7.26990368 6.54817456 -5.40736832 0.47020594 0 0 Z " fill="#090909" transform="translate(245.875,327.75)"/>
<path d="M0 0 C2.9375 0.4375 2.9375 0.4375 4.8125 1.5625 C6.54665049 4.45275082 6.3271128 6.05086564 5.9375 9.4375 C4.41310629 13.04669236 2.50024539 16.41112908 0.5625 19.8125 C0.01811279 20.78622559 -0.52627441 21.75995117 -1.0871582 22.76318359 C-5.81829194 31.15768682 -10.72638052 39.41350846 -16.0625 47.4375 C-16.45566406 48.03900879 -16.84882813 48.64051758 -17.25390625 49.26025391 C-18.39368349 50.98449612 -19.56392877 52.68236421 -20.75 54.375 C-21.41386719 55.33277344 -22.07773437 56.29054688 -22.76171875 57.27734375 C-25.78314824 60.11410183 -27.98519864 60.29018492 -32.0625 60.4375 C-34 59.4375 -34 59.4375 -35.0625 57.4375 C-35.44486556 53.42744118 -35.47119638 51.1341196 -33.41015625 47.62109375 C-32.65605469 46.71488281 -31.90195313 45.80867188 -31.125 44.875 C-30.28794084 43.82457282 -29.45473126 42.77106878 -28.625 41.71484375 C-28.19703125 41.17456543 -27.7690625 40.63428711 -27.328125 40.07763672 C-20.43958561 31.15070624 -15.30728519 21.34937085 -10.51196289 11.18945312 C-5.52826032 0.78975147 -5.52826032 0.78975147 0 0 Z " fill="#0B0B0B" transform="translate(279.0625,357.5625)"/>
<path d="M0 0 C2 2 2 2 2.26953125 4.87890625 C2.10778428 10.32626296 0.81260795 15.62462351 -0.3125 20.9375 C-0.77567608 23.17558764 -1.23791591 25.41386925 -1.69921875 27.65234375 C-1.92399902 28.73757324 -2.1487793 29.82280273 -2.38037109 30.94091797 C-3.05880117 34.29029892 -3.67616342 37.64670791 -4.27246094 41.01147461 C-7.13007387 57.13007387 -7.13007387 57.13007387 -11 61 C-14.5 61.25 -14.5 61.25 -18 61 C-20 59 -20 59 -20.2421875 55.40625 C-20.12727711 50.93885653 -19.23294023 46.81389494 -18.125 42.5 C-17.95097656 41.79230469 -17.77695313 41.08460938 -17.59765625 40.35546875 C-16.90878954 37.56428288 -16.21259475 34.77701148 -15.45385742 32.00390625 C-13.92079196 26.27705976 -13.35496999 20.60815607 -12.87695312 14.7109375 C-12.36593455 9.35214811 -11.19671403 4.93297185 -9 0 C-5.88135455 -1.55932272 -3.33704665 -0.65549131 0 0 Z " fill="#090909" transform="translate(202,344)"/>
<path d="M0 0 C0 3.58209229 -0.5220551 3.9138451 -2.921875 6.3984375 C-3.53546875 7.04296875 -4.1490625 7.6875 -4.78125 8.3515625 C-5.4309375 9.01929688 -6.080625 9.68703125 -6.75 10.375 C-8.01724433 11.69375833 -9.2829075 13.01403815 -10.546875 14.3359375 C-11.14959229 14.96580566 -11.75230957 15.59567383 -12.37329102 16.24462891 C-14.37251112 18.40197432 -16.17054729 20.69830245 -18 23 C-19.31695128 24.32958996 -20.67002641 25.62472506 -22.0625 26.875 C-23.06990234 27.79925781 -23.06990234 27.79925781 -24.09765625 28.7421875 C-24.72542969 29.15726563 -25.35320312 29.57234375 -26 30 C-26.99 29.67 -27.98 29.34 -29 29 C-28.41734375 28.50113281 -27.8346875 28.00226563 -27.234375 27.48828125 C-20.98386033 22.01416699 -15.36508619 16.18636221 -9.78515625 10.04296875 C-6.63491558 6.57802514 -3.34904342 3.2729288 0 0 Z " fill="#DADADA" transform="translate(385,167)"/>
<path d="M0 0 C0.33 0 0.66 0 1 0 C1.33 1.98 1.66 3.96 2 6 C2.66 5.01 3.32 4.02 4 3 C3.25 10.625 3.25 10.625 1 14 C-0.38226016 11.23547967 -0.09525387 8.9538637 -0.0625 5.875 C-0.05347656 4.77929688 -0.04445313 3.68359375 -0.03515625 2.5546875 C-0.02355469 1.71164063 -0.01195312 0.86859375 0 0 Z " fill="#2B2B2B" transform="translate(331,250)"/>
<path d="M0 0 C0.66 0 1.32 0 2 0 C0.4422692 3.82352106 -1.91595258 6.29205593 -5 9 C-5.99 9 -6.98 9 -8 9 C-6.71520959 7.49410612 -5.42195918 5.99542625 -4.125 4.5 C-3.04605469 3.24703125 -3.04605469 3.24703125 -1.9453125 1.96875 C-1.30335938 1.3190625 -0.66140625 0.669375 0 0 Z " fill="#D4D4D4" transform="translate(198,46)"/>
<path d="M0 0 C0.66 0.33 1.32 0.66 2 1 C0.5484451 2.67257355 -0.91144409 4.33791758 -2.375 6 C-3.18710937 6.928125 -3.99921875 7.85625 -4.8359375 8.8125 C-5.55007813 9.534375 -6.26421875 10.25625 -7 11 C-7.66 11 -8.32 11 -9 11 C-7.44095325 7.17324889 -4.96833913 4.81992217 -2 2 C-1.34 1.34 -0.68 0.68 0 0 Z " fill="#707070" transform="translate(309,48)"/>
<path d="M0 0 C1.60517097 0.08733576 3.20921662 0.19552224 4.8125 0.3125 C6.15248047 0.39951172 6.15248047 0.39951172 7.51953125 0.48828125 C10.30604 1.06313581 11.24135754 1.8206856 13 4 C8.428721 3.45144652 4.32564205 2.58255197 0 1 C0 0.67 0 0.34 0 0 Z " fill="#6A6869" transform="translate(191,475)"/>
</svg>
