<?xml version="1.0" encoding="UTF-8"?>
<svg version="1.1" xmlns="http://www.w3.org/2000/svg" width="535" height="466">
<path d="M0 0 C1.18820847 0.00131424 1.18820847 0.00131424 2.40042114 0.00265503 C14.80678236 0.04783046 26.41812861 0.83645701 38.375 4.375 C39.21981934 4.61105957 40.06463867 4.84711914 40.93505859 5.09033203 C62.92722816 11.32727754 85.38668176 22.6471104 99.375 41.375 C100.13941406 42.36628906 100.90382813 43.35757813 101.69140625 44.37890625 C112.92195611 59.27121444 123.39121497 77.72634358 126.375 96.375 C127.07971436 96.21491455 127.78442871 96.0548291 128.51049805 95.88989258 C143.36373862 93.22003113 160.16882368 94.34261466 174.375 99.375 C175.43332031 99.73722656 176.49164063 100.09945312 177.58203125 100.47265625 C195.64934227 107.31457762 210.90728417 121.12649951 219.51611328 138.42382812 C221.90601144 143.85306805 223.20157681 149.57773068 224.375 155.375 C224.56449219 156.17164063 224.75398437 156.96828125 224.94921875 157.7890625 C228.14152368 177.17718969 223.1283496 196.18273066 212.375 212.375 C209.57916366 215.94569535 206.57191195 219.16572089 203.375 222.375 C201.66751814 224.34517138 200.02313594 226.35470433 198.375 228.375 C199.11105469 228.62636719 199.84710938 228.87773437 200.60546875 229.13671875 C210.72142287 233.65964887 217.31308136 245.55102889 221.65625 255.23046875 C231.00704222 279.77629832 230.72018821 306.16775756 220.375 330.375 C212.08111539 348.82641141 198.14891353 362.8428964 179.234375 370.33203125 C178.29078125 370.67621094 177.3471875 371.02039063 176.375 371.375 C175.34890625 371.75011719 174.3228125 372.12523437 173.265625 372.51171875 C170.375 373.375 170.375 373.375 166.375 373.375 C166.2925 374.591875 166.21 375.80875 166.125 377.0625 C164.77825738 388.83266153 160.24336 402.31252574 152.375 411.375 C151.715 411.375 151.055 411.375 150.375 411.375 C150.0346875 412.2103125 150.0346875 412.2103125 149.6875 413.0625 C148.00290762 416.03059134 145.8911164 418.12247675 143.375 420.375 C142.73046875 420.9628125 142.0859375 421.550625 141.421875 422.15625 C114.81603402 444.96125656 77.98738324 448.74058841 44.375 449.375 C43.63749512 449.39159668 42.89999023 449.40819336 42.14013672 449.42529297 C37.54895596 449.51960837 32.96535825 449.46858806 28.375 449.375 C27.31861328 449.35711426 26.26222656 449.33922852 25.17382812 449.32080078 C8.07495673 449.00269304 -8.74190748 448.17585926 -25.625 445.375 C-26.91470703 445.16133789 -28.20441406 444.94767578 -29.53320312 444.72753906 C-68.46955999 438.12906999 -108.67150033 425.7044042 -141.625 403.375 C-142.65625 402.7975 -143.6875 402.22 -144.75 401.625 C-153.16944151 396.86699332 -161.00444554 391.26988892 -168.46875 385.13671875 C-170.60552654 383.34792638 -170.60552654 383.34792638 -172.90625 381.76953125 C-173.4734375 381.30933594 -174.040625 380.84914063 -174.625 380.375 C-174.625 379.715 -174.625 379.055 -174.625 378.375 C-175.181875 378.1275 -175.73875 377.88 -176.3125 377.625 C-179.04910913 376.14575182 -181.30150869 374.44032561 -183.625 372.375 C-183.625 371.715 -183.625 371.055 -183.625 370.375 C-184.48158203 370.00761719 -184.48158203 370.00761719 -185.35546875 369.6328125 C-201.65777311 360.59780044 -215.66697746 337.2297606 -225.5 322 C-225.86923584 321.42926758 -226.23847168 320.85853516 -226.61889648 320.27050781 C-228.86195803 316.74149315 -230.81495581 313.14307942 -232.625 309.375 C-233.61113281 309.61283203 -233.61113281 309.61283203 -234.6171875 309.85546875 C-246.3338903 311.87926287 -258.11197046 311.25621979 -268.234375 304.6796875 C-285.54308452 291.72438068 -294.4056243 270.70356484 -297.84375 249.8359375 C-303.280063 209.64428707 -293.59371455 166.60786085 -278.625 129.375 C-278.24166504 128.37718506 -277.85833008 127.37937012 -277.46337891 126.35131836 C-272.53233792 113.54727546 -265.65313119 100.74726983 -256.625 90.375 C-256.13644531 89.76785156 -255.64789063 89.16070312 -255.14453125 88.53515625 C-245.80643958 77.09411632 -231.41816237 66.03367895 -216.625 63.375 C-215.54863281 63.15199219 -214.47226563 62.92898437 -213.36328125 62.69921875 C-202.10548421 60.68049387 -192.27148789 61.74089163 -181.84375 66.47265625 C-179.28480588 67.5133536 -177.40632216 68.27262004 -174.625 68.375 C-171.91194792 66.50114798 -171.91194792 66.50114798 -169.375 63.8125 C-164.76573312 59.34824202 -160.07828431 55.74156838 -154.625 52.375 C-152.87482559 51.25027135 -151.12483566 50.12525559 -149.375 49 C-147.45932279 47.7900986 -145.54261894 46.58182152 -143.625 45.375 C-142.63757813 44.7459375 -141.65015625 44.116875 -140.6328125 43.46875 C-113.76153452 26.5820616 -84.44895118 14.77823658 -53.625 7.375 C-52.7189502 7.15569824 -51.81290039 6.93639648 -50.87939453 6.71044922 C-48.02621852 6.02519716 -45.1702641 5.35334378 -42.3125 4.6875 C-41.45414551 4.48495605 -40.59579102 4.28241211 -39.71142578 4.07373047 C-26.47274561 1.06345595 -13.52904854 -0.03673623 0 0 Z " fill="#FDFDFD" transform="translate(303.625,8.625)"/>
<path d="M0 0 C1.18820847 0.00131424 1.18820847 0.00131424 2.40042114 0.00265503 C14.80678236 0.04783046 26.41812861 0.83645701 38.375 4.375 C39.21981934 4.61105957 40.06463867 4.84711914 40.93505859 5.09033203 C62.92722816 11.32727754 85.38668176 22.6471104 99.375 41.375 C100.13941406 42.36628906 100.90382813 43.35757813 101.69140625 44.37890625 C112.92195611 59.27121444 123.39121497 77.72634358 126.375 96.375 C127.07971436 96.21491455 127.78442871 96.0548291 128.51049805 95.88989258 C143.36373862 93.22003113 160.16882368 94.34261466 174.375 99.375 C175.43332031 99.73722656 176.49164063 100.09945312 177.58203125 100.47265625 C195.64934227 107.31457762 210.90728417 121.12649951 219.51611328 138.42382812 C221.90601144 143.85306805 223.20157681 149.57773068 224.375 155.375 C224.56449219 156.17164063 224.75398437 156.96828125 224.94921875 157.7890625 C228.14152368 177.17718969 223.1283496 196.18273066 212.375 212.375 C209.57916366 215.94569535 206.57191195 219.16572089 203.375 222.375 C201.66751814 224.34517138 200.02313594 226.35470433 198.375 228.375 C199.11105469 228.62636719 199.84710938 228.87773437 200.60546875 229.13671875 C210.72142287 233.65964887 217.31308136 245.55102889 221.65625 255.23046875 C231.00704222 279.77629832 230.72018821 306.16775756 220.375 330.375 C212.08111539 348.82641141 198.14891353 362.8428964 179.234375 370.33203125 C178.29078125 370.67621094 177.3471875 371.02039063 176.375 371.375 C175.34890625 371.75011719 174.3228125 372.12523437 173.265625 372.51171875 C170.375 373.375 170.375 373.375 166.375 373.375 C166.2925 374.591875 166.21 375.80875 166.125 377.0625 C164.77825738 388.83266153 160.24336 402.31252574 152.375 411.375 C151.715 411.375 151.055 411.375 150.375 411.375 C150.0346875 412.2103125 150.0346875 412.2103125 149.6875 413.0625 C148.00290762 416.03059134 145.8911164 418.12247675 143.375 420.375 C142.73046875 420.9628125 142.0859375 421.550625 141.421875 422.15625 C114.81603402 444.96125656 77.98738324 448.74058841 44.375 449.375 C43.63749512 449.39159668 42.89999023 449.40819336 42.14013672 449.42529297 C37.54895596 449.51960837 32.96535825 449.46858806 28.375 449.375 C27.31861328 449.35711426 26.26222656 449.33922852 25.17382812 449.32080078 C8.07495673 449.00269304 -8.74190748 448.17585926 -25.625 445.375 C-26.91470703 445.16133789 -28.20441406 444.94767578 -29.53320312 444.72753906 C-68.46955999 438.12906999 -108.67150033 425.7044042 -141.625 403.375 C-142.65625 402.7975 -143.6875 402.22 -144.75 401.625 C-153.16944151 396.86699332 -161.00444554 391.26988892 -168.46875 385.13671875 C-170.60552654 383.34792638 -170.60552654 383.34792638 -172.90625 381.76953125 C-173.4734375 381.30933594 -174.040625 380.84914063 -174.625 380.375 C-174.625 379.715 -174.625 379.055 -174.625 378.375 C-175.181875 378.1275 -175.73875 377.88 -176.3125 377.625 C-179.04910913 376.14575182 -181.30150869 374.44032561 -183.625 372.375 C-183.625 371.715 -183.625 371.055 -183.625 370.375 C-184.48158203 370.00761719 -184.48158203 370.00761719 -185.35546875 369.6328125 C-201.65777311 360.59780044 -215.66697746 337.2297606 -225.5 322 C-225.86923584 321.42926758 -226.23847168 320.85853516 -226.61889648 320.27050781 C-228.86195803 316.74149315 -230.81495581 313.14307942 -232.625 309.375 C-233.61113281 309.61283203 -233.61113281 309.61283203 -234.6171875 309.85546875 C-246.3338903 311.87926287 -258.11197046 311.25621979 -268.234375 304.6796875 C-285.54308452 291.72438068 -294.4056243 270.70356484 -297.84375 249.8359375 C-303.280063 209.64428707 -293.59371455 166.60786085 -278.625 129.375 C-278.24166504 128.37718506 -277.85833008 127.37937012 -277.46337891 126.35131836 C-272.53233792 113.54727546 -265.65313119 100.74726983 -256.625 90.375 C-256.13644531 89.76785156 -255.64789063 89.16070312 -255.14453125 88.53515625 C-245.80643958 77.09411632 -231.41816237 66.03367895 -216.625 63.375 C-215.54863281 63.15199219 -214.47226563 62.92898437 -213.36328125 62.69921875 C-202.10548421 60.68049387 -192.27148789 61.74089163 -181.84375 66.47265625 C-179.28480588 67.5133536 -177.40632216 68.27262004 -174.625 68.375 C-171.91194792 66.50114798 -171.91194792 66.50114798 -169.375 63.8125 C-164.76573312 59.34824202 -160.07828431 55.74156838 -154.625 52.375 C-152.87482559 51.25027135 -151.12483566 50.12525559 -149.375 49 C-147.45932279 47.7900986 -145.54261894 46.58182152 -143.625 45.375 C-142.63757813 44.7459375 -141.65015625 44.116875 -140.6328125 43.46875 C-113.76153452 26.5820616 -84.44895118 14.77823658 -53.625 7.375 C-52.7189502 7.15569824 -51.81290039 6.93639648 -50.87939453 6.71044922 C-48.02621852 6.02519716 -45.1702641 5.35334378 -42.3125 4.6875 C-41.45414551 4.48495605 -40.59579102 4.28241211 -39.71142578 4.07373047 C-26.47274561 1.06345595 -13.52904854 -0.03673623 0 0 Z M-64.53613281 30.65185547 C-66.59554999 31.36480471 -68.6643862 32.03418325 -70.7421875 32.69140625 C-122.33782051 49.13200533 -175.4880489 82.88323141 -201.07495117 131.91943359 C-205.50166937 140.75880855 -208.68721437 149.95277563 -211.625 159.375 C-211.87121094 160.15746094 -212.11742187 160.93992188 -212.37109375 161.74609375 C-214.64014992 169.01933867 -216.65431765 176.22125677 -218.1003418 183.70605469 C-218.64577602 186.48068796 -219.23905556 189.2416111 -219.84375 192.00390625 C-220.05386719 192.97779297 -220.26398438 193.95167969 -220.48046875 194.95507812 C-220.90451242 196.91724382 -221.33405141 198.87823133 -221.76953125 200.83789062 C-225.00013326 215.95036936 -226.0414844 230.93610348 -226.10546875 246.35766602 C-226.12491501 249.17518622 -226.1872455 251.98979685 -226.25 254.80664062 C-226.64194239 288.61351317 -207.14807844 318.84265654 -184.2890625 342.59375 C-182.15722996 344.81935816 -180.15637233 347.07097365 -178.1875 349.4375 C-163.78816241 365.94321551 -145.42103706 378.45007228 -126.625 389.375 C-125.59971191 389.97731445 -125.59971191 389.97731445 -124.55371094 390.59179688 C-115.17678532 396.78100314 -115.17678532 396.78100314 -104.625 399.375 C-104.625 400.035 -104.625 400.695 -104.625 401.375 C-103.79097656 401.68953125 -102.95695312 402.0040625 -102.09765625 402.328125 C-100.97230469 402.75609375 -99.84695312 403.1840625 -98.6875 403.625 C-97.58535156 404.04265625 -96.48320312 404.4603125 -95.34765625 404.890625 C-92.59768427 405.96157612 -89.90310322 407.12721003 -87.2109375 408.3359375 C-62.93263836 419.20949706 -36.94710518 424.35381924 -10.625 427.375 C-9.89089905 427.46088379 -9.1567981 427.54676758 -8.40045166 427.63525391 C6.99789421 429.39874578 22.32081698 429.85611866 37.8125 429.875 C39.04324249 429.8773465 40.27398499 429.87969299 41.54202271 429.8821106 C66.79854568 429.86221081 90.43038518 427.8341962 113.375 416.375 C114.38949219 415.90449219 115.40398437 415.43398438 116.44921875 414.94921875 C130.82372662 407.83213326 139.22727041 397.38738414 144.45703125 382.6796875 C145.29453161 379.6646862 145.45218406 377.46039157 145.375 374.375 C144.40079102 374.33536133 143.42658203 374.29572266 142.42285156 374.25488281 C125.80149826 373.55835403 109.22868174 372.82012405 92.75 370.4375 C91.65204102 370.27991211 90.55408203 370.12232422 89.42285156 369.95996094 C79.86870797 368.48166089 70.75701013 365.87828167 61.56640625 362.92578125 C59.10503593 362.21249618 59.10503593 362.21249618 55.375 362.375 C55.375 361.715 55.375 361.055 55.375 360.375 C55.9512915 360.38547363 56.52758301 360.39594727 57.12133789 360.40673828 C59.89334185 360.44991847 62.66527603 360.47481432 65.4375 360.5 C66.34177734 360.51675781 67.24605469 360.53351563 68.17773438 360.55078125 C75.12891075 360.59727741 81.96500224 360.10598753 88.87890625 359.46484375 C102.64962875 358.18876614 116.4394331 357.50075537 130.25 356.8125 C133.99742614 356.62413731 137.7447737 356.43452243 141.49197388 356.24171448 C143.79691082 356.1232425 146.10197972 356.00729926 148.40719604 355.89439392 C161.90941291 355.30792703 161.90941291 355.30792703 174.4375 350.75 C175.13214355 350.39172119 175.82678711 350.03344238 176.54248047 349.66430664 C181.81183257 346.86128859 186.27021061 343.74201181 190.375 339.375 C190.88933594 338.86839844 191.40367187 338.36179687 191.93359375 337.83984375 C204.27359701 324.79469744 209.18292127 305.70760776 208.82617188 288.16088867 C208.11582103 272.04564147 203.53497708 257.42494226 191.5859375 246.14453125 C184.50325941 240.47588606 177.29338155 238.69669318 168.375 239.375 C166.82944131 239.67489197 165.28890388 240.0016066 163.75390625 240.3515625 C158.37197124 241.46338897 153.10823511 241.81530257 147.625 242 C146.65763916 242.03649658 145.69027832 242.07299316 144.69360352 242.1105957 C141.9209536 242.20944529 139.14823026 242.29434913 136.375 242.375 C135.12074219 242.41753906 133.86648438 242.46007812 132.57421875 242.50390625 C114.14150285 242.83503288 96.19140716 239.86057736 78.375 235.375 C86.30879073 233.73397001 94.10912007 232.93335812 102.1875 232.4375 C110.27946358 231.87945308 117.92893759 231.11819594 125.8046875 229.1640625 C131.48400184 227.90889675 137.24125811 227.2084751 143.00708008 226.46508789 C146.84565317 225.95383451 150.54391328 225.40837237 154.2578125 224.29296875 C157.375 223.375 157.375 223.375 161.3125 223.25 C174.15235003 222.01455051 186.17235327 212.63140136 194.0625 203.0625 C201.56243296 192.99994758 205.96002309 182.00870992 205.75 169.4375 C205.73984863 168.55650635 205.72969727 167.6755127 205.71923828 166.76782227 C205.57058738 160.54925956 205.02373012 155.07378299 202.375 149.375 C201.9728125 148.4778125 201.570625 147.580625 201.15625 146.65625 C193.95572296 132.09518421 180.84212501 123.21554677 166.06640625 117.28515625 C159.1117899 114.93330486 152.26939553 115.19135849 145 115.1875 C143.7934375 115.17525391 142.586875 115.16300781 141.34375 115.15039062 C135.23732778 115.14032509 130.23244534 115.53694939 124.375 117.375 C121.43359216 117.66689267 118.51626921 117.65945764 115.5625 117.625 C114.71155762 117.61895752 113.86061523 117.61291504 112.98388672 117.60668945 C96.76349231 117.36734362 80.0722201 116.73760403 64.375 112.375 C63.32054687 112.09914063 62.26609375 111.82328125 61.1796875 111.5390625 C44.31627941 106.78480046 29.50234667 98.50909273 16.68359375 86.53125 C14.56801389 84.55527693 12.39860223 82.67984161 10.1875 80.8125 C7.59901871 78.56366039 5.33239765 76.24728203 3.125 73.625 C-0.87721355 68.88920206 -5.44969051 64.83302677 -10.05078125 60.6953125 C-11.60864496 59.29110758 -13.14197424 57.85802576 -14.625 56.375 C-14.0673999 56.75197021 -13.5097998 57.12894043 -12.93530273 57.51733398 C3.37142606 68.52081641 19.54233328 79.01508927 37.375 87.375 C38.50679688 87.9215625 39.63859375 88.468125 40.8046875 89.03125 C52.74328593 94.33729375 65.54649002 96.30441396 78.375 98.375 C79.09896973 98.49206299 79.82293945 98.60912598 80.56884766 98.72973633 C86.00752283 99.51129714 91.3959112 99.48926465 96.875 99.4375 C97.7928125 99.43298828 98.710625 99.42847656 99.65625 99.42382812 C101.89590391 99.41216326 104.13541545 99.39579614 106.375 99.375 C100.85205443 72.21926354 83.8919448 49.67774982 61.11279297 34.45361328 C58.12467995 32.59895139 55.04726545 31.26575515 51.71875 30.15625 C49.375 29.375 49.375 29.375 46.2578125 27.9453125 C41.58657233 25.91466591 36.70228782 24.87362833 31.75 23.75 C30.821875 23.5334375 29.89375 23.316875 28.9375 23.09375 C26.41895266 22.50921609 23.90002323 21.93088777 21.375 21.375 C20.17012939 21.10236328 20.17012939 21.10236328 18.94091797 20.82421875 C-7.46289989 16.20166643 -39.58804988 21.96811232 -64.53613281 30.65185547 Z " fill="#0C0C0C" transform="translate(303.625,8.625)"/>
<path d="M0 0 C-1.47882847 3.41208862 -3.42469061 5.64981404 -6 8.3125 C-15.90146856 19.16756104 -22.87966084 31.72606441 -29 45 C-29.44859375 45.95777344 -29.8971875 46.91554687 -30.359375 47.90234375 C-38.96927754 67.38644138 -44.5784142 89.00654137 -48 110 C-48.36295221 112.06766363 -48.73212964 114.13416853 -49.1015625 116.20068359 C-49.49723816 118.4219951 -49.88609409 120.64440942 -50.2734375 122.8671875 C-50.7003095 125.31362102 -51.14206827 127.75462235 -51.6015625 130.1953125 C-53.88241254 142.68892392 -54.08592516 155.21196166 -54.125 167.875 C-54.12967285 168.92067139 -54.1343457 169.96634277 -54.13916016 171.04370117 C-54.12133397 179.67500545 -53.75584848 188.01998567 -51.4375 196.375 C-50.47458188 199.86730592 -50 202.3288442 -50 206 C-61.45573403 206.61187897 -61.45573403 206.61187897 -66.3125 204.6875 C-72.64299458 198.35700542 -77.13298284 191.32999444 -80.75 183.1875 C-81.0193335 182.58518555 -81.28866699 181.98287109 -81.56616211 181.36230469 C-82.4512461 179.26251171 -83.23770075 177.14766502 -84 175 C-84.35449219 174.00355469 -84.70898438 173.00710938 -85.07421875 171.98046875 C-88.16718045 162.38238119 -88.63573477 153.59173506 -88.5 143.625 C-88.49512573 142.84096802 -88.49025146 142.05693604 -88.48522949 141.24914551 C-88.38573786 127.54504265 -87.06185738 114.38370703 -84 101 C-83.82919922 100.23864746 -83.65839844 99.47729492 -83.48242188 98.69287109 C-82.43288513 94.09651755 -81.23897635 89.5493663 -80 85 C-79.6644706 83.69327025 -79.33116491 82.38596766 -79 81.078125 C-77.07624478 73.54466949 -74.83798245 66.24020719 -72 59 C-71.69320312 58.2059375 -71.38640625 57.411875 -71.0703125 56.59375 C-70.07168412 54.05178684 -69.03858506 51.52589678 -68 49 C-67.55785156 47.89398438 -67.11570312 46.78796875 -66.66015625 45.6484375 C-61.61415242 33.36135126 -55.31261818 23.48165911 -46 14 C-45.23945312 13.21496094 -44.47890625 12.42992188 -43.6953125 11.62109375 C-31.63102209 -0.06742368 -16.39114664 -6.64505945 0 0 Z " fill="#FAFAFA" transform="translate(113,93)"/>
<path d="M0 0 C4.51192896 0.5096142 8.64498656 1.98314499 12.91479492 3.47436523 C14.8536463 4.12136079 16.79378017 4.76452444 18.73510742 5.40405273 C19.70351562 5.72341797 20.67192383 6.0427832 21.66967773 6.37182617 C26.00727797 7.7547222 30.38502532 8.95120465 34.78979492 10.09936523 C35.52633301 10.29361084 36.26287109 10.48785645 37.02172852 10.68798828 C41.65499282 11.88115078 46.30907111 12.85043347 51.00415039 13.76660156 C54.3327221 14.44955807 57.62110779 15.26584902 60.91772461 16.08740234 C68.51062346 17.97693621 76.04249152 19.62154327 83.78979492 20.72436523 C91.59701711 21.86739766 99.28334153 23.41288803 106.97729492 25.16186523 C108.06236328 25.39446045 109.14743164 25.62705566 110.26538086 25.86669922 C117.85702056 27.65158822 117.85702056 27.65158822 121.23510742 30.79467773 C122.88349595 33.94339593 123.05198717 35.77468985 122.53979492 39.28686523 C121.29416157 42.02725861 120.22844047 43.75125203 117.85229492 45.59936523 C110.47333424 47.7931103 103.13905407 45.48846566 95.95410156 43.61132812 C88.09900845 41.58440499 80.20043358 40.02058456 72.22729492 38.53686523 C61.78988811 36.55800053 51.38111807 34.47036187 41.01113892 32.16247559 C39.11124013 31.74024318 37.20969938 31.32541997 35.30810547 30.91088867 C27.66059668 29.1844487 20.32593843 26.98923097 12.92260742 24.44433594 C10.18657869 23.50817022 7.45319263 22.6284531 4.68041992 21.81030273 C4.02041992 21.61436523 3.36041992 21.41842773 2.68041992 21.21655273 C1.37472143 20.8334759 0.06730226 20.45623271 -1.24145508 20.08374023 C-7.36082672 18.24792874 -7.36082672 18.24792874 -9.46020508 15.28686523 C-9.46020508 14.62686523 -9.46020508 13.96686523 -9.46020508 13.28686523 C-10.12020508 13.28686523 -10.78020508 13.28686523 -11.46020508 13.28686523 C-11.89615518 8.92736419 -11.69888343 6.71032683 -9.52270508 2.84936523 C-5.85301553 -0.22119132 -4.5536487 -0.13659566 0 0 Z " fill="#080808" transform="translate(122.460205078125,211.713134765625)"/>
<path d="M0 0 C3.86556572 1.65480225 7.40280363 3.83223846 11 6 C20.83443484 11.91418764 30.58467431 17.53243824 41.09667969 22.16015625 C43.09404178 23.04149612 45.08222427 23.94170332 47.0703125 24.84375 C53.07935532 27.54653833 59.01474228 30.09343363 65.3125 32.0625 C79.95043444 36.72821645 79.95043444 36.72821645 83.27734375 42.0390625 C84.24763013 44.6719477 84.46592411 46.20445535 84 49 C82.13003833 51.87793357 80.11843585 54.44078208 77 56 C72.26952469 56.05097495 67.92461865 55.12555048 63.57421875 53.30859375 C62.26783447 52.76948364 62.26783447 52.76948364 60.93505859 52.21948242 C59.96648926 51.81705322 58.99791992 51.41462402 58 51 C55.73606101 50.08758847 53.47171296 49.17619149 51.20703125 48.265625 C38.46083568 43.08670754 25.92488909 37.91991739 14 31 C12.78513062 30.32452205 11.56894414 29.6514084 10.3515625 28.98046875 C-9.38911501 18.0311332 -9.38911501 18.0311332 -13 11 C-13.62986035 7.400798 -13.2099875 6.30798167 -11.125 3.25 C-7.78006809 -0.29169261 -4.72256056 -0.86565992 0 0 Z " fill="#080808" transform="translate(120,256)"/>
<path d="M0 0 C1.94379346 0.48747811 3.88734007 0.97604906 5.82788086 1.47631836 C22.5182482 5.5002408 40.06273448 5.68952088 57.13366699 6.46269226 C77.05244682 7.3746149 77.05244682 7.3746149 81.125 10.0625 C83.22168276 13.347303 83.73176858 15.23498183 83.5 19.06640625 C82.65163253 22.34720232 80.5881706 23.96643739 78 26 C67.57588869 31.21205566 47.18735968 26.05112412 36 25 C34.23960671 24.84218696 32.47919121 24.68462141 30.71875 24.52734375 C22.17445544 23.74175694 13.67741666 22.74561577 5.1875 21.5 C4.36926758 21.38148682 3.55103516 21.26297363 2.70800781 21.14086914 C-9.40051268 19.28990913 -9.40051268 19.28990913 -12.9375 16.4375 C-14.6050204 12.61201203 -14.7501509 9.09305638 -14 5 C-10.3866798 -0.7113771 -6.20139642 -0.89397976 0 0 Z " fill="#050505" transform="translate(132,159)"/>
<path d="M0 0 C0 0.33 0 0.66 0 1 C-0.58265625 0.93941406 -1.1653125 0.87882813 -1.765625 0.81640625 C-4.50964057 0.53596441 -7.25473568 0.26794306 -10 0 C-10.86447754 -0.08813965 -11.72895508 -0.1762793 -12.61962891 -0.26708984 C-20.42902586 -0.99987508 -28.20321657 -1.18622995 -36.04003906 -1.18530273 C-38.15709295 -1.18753382 -40.27365972 -1.20589882 -42.390625 -1.22460938 C-43.74218574 -1.22753639 -45.09374892 -1.2295258 -46.4453125 -1.23046875 C-47.65719238 -1.23457764 -48.86907227 -1.23868652 -50.11767578 -1.24291992 C-53.12884978 -1.30130019 -53.12884978 -1.30130019 -55 1 C-55 0.34 -55 -0.32 -55 -1 C-56.05058594 -0.855625 -57.10117187 -0.71125 -58.18359375 -0.5625 C-65.50218691 0.41505494 -72.59883991 1.26432715 -80 1 C-80 0.67 -80 0.34 -80 0 C-54.2493657 -5.79427797 -25.61644027 -7.20864651 0 0 Z " fill="#9A9A9A" transform="translate(342,13)"/>
<path d="M0 0 C5.19962628 1.69144469 9.40674589 4.81545654 13.875 7.875 C19.14933399 11.46994406 24.40968124 14.91414404 30 18 C30 20.31 30 22.62 30 25 C29.01 25.33 28.02 25.66 27 26 C23.70891176 23.89736029 21.31751515 21.25957664 18.8125 18.3125 C15.28966425 14.18068389 11.38173134 10.64007731 7.3125 7.0546875 C4.76662387 4.79264216 2.36724637 2.44615459 0 0 Z " fill="#181818" transform="translate(287,64)"/>
<path d="M0 0 C-3.14573677 2.09715785 -5.01456251 2.52004559 -8.6875 3.125 C-9.68136719 3.29257813 -10.67523438 3.46015625 -11.69921875 3.6328125 C-12.45847656 3.75398438 -13.21773437 3.87515625 -14 4 C-14 4.66 -14 5.32 -14 6 C-17.53677723 9.53677723 -22.3364724 10.59496284 -27 12 C-20.96890978 5.62466947 -9.18478139 -3.0615938 0 0 Z " fill="#959595" transform="translate(90,73)"/>
<path d="M0 0 C4.95 0 9.9 0 15 0 C15 0.99 15 1.98 15 3 C12.41569255 4.71056541 11.31678461 5.05220752 8.203125 4.5390625 C7.22859375 4.23742187 6.2540625 3.93578125 5.25 3.625 C4.26515625 3.32851563 3.2803125 3.03203125 2.265625 2.7265625 C1.51796875 2.48679687 0.7703125 2.24703125 0 2 C0 1.34 0 0.68 0 0 Z " fill="#2A2A2A" transform="translate(359,369)"/>
<path d="M0 0 C0.66 0.33 1.32 0.66 2 1 C-4.625 5 -4.625 5 -8 5 C-8 5.66 -8 6.32 -8 7 C-9.0725 7.268125 -10.145 7.53625 -11.25 7.8125 C-14.91989191 8.73857319 -14.91989191 8.73857319 -17.1875 10.6875 C-17.785625 11.120625 -18.38375 11.55375 -19 12 C-21.11328125 11.58203125 -21.11328125 11.58203125 -23 11 C-20.48043257 9.72660518 -17.95941351 8.45623358 -15.4375 7.1875 C-14.73302734 6.83107422 -14.02855469 6.47464844 -13.30273438 6.10742188 C-8.92890799 3.91043074 -4.57859234 1.73790201 0 0 Z " fill="#888888" transform="translate(202,32)"/>
<path d="M0 0 C-4.01786884 2.00893442 -6.43912556 3.12002301 -11 3 C-9.68 3.99 -8.36 4.98 -7 6 C-11.86896303 5.40380045 -16.32790951 4.43023178 -21 3 C-21 2.67 -21 2.34 -21 2 C-18.81347261 1.66034526 -16.62571975 1.32857523 -14.4375 1 C-13.21933594 0.814375 -12.00117188 0.62875 -10.74609375 0.4375 C-7.12372152 0.01444923 -3.64287954 -0.07501425 0 0 Z " fill="#3C3C3C" transform="translate(400,241)"/>
<path d="M0 0 C2.97 0 5.94 0 9 0 C9 0.66 9 1.32 9 2 C15.435 4.97 15.435 4.97 22 8 C18.4548943 9.1817019 17.85982494 8.7911988 14.55078125 7.34765625 C13.70322266 6.98349609 12.85566406 6.61933594 11.98242188 6.24414062 C11.10134766 5.85419922 10.22027344 5.46425781 9.3125 5.0625 C8.41982422 4.67642578 7.52714844 4.29035156 6.60742188 3.89257812 C4.40107732 2.93688877 2.19899853 1.97244531 0 1 C0 0.67 0 0.34 0 0 Z " fill="#7F7F7F" transform="translate(196,429)"/>
<path d="M0 0 C3.89006773 1.38780795 6.96558708 3.2152227 10.3125 5.625 C11.19550781 6.25664063 12.07851563 6.88828125 12.98828125 7.5390625 C13.65214844 8.02117187 14.31601562 8.50328125 15 9 C14.67 9.99 14.34 10.98 14 12 C10.31291925 10.42351454 7.70126855 8.12557062 4.75 5.4375 C3.85796875 4.63183594 2.9659375 3.82617188 2.046875 2.99609375 C1.37140625 2.33738281 0.6959375 1.67867188 0 1 C0 0.67 0 0.34 0 0 Z " fill="#404040" transform="translate(287,64)"/>
<path d="M0 0 C1.61245225 3.22490449 0.81573082 5.56227727 0 9 C-2.4375 11.9375 -2.4375 11.9375 -5 14 C-5.66 14 -6.32 14 -7 14 C-5.23570801 9.02790438 -2.6060834 4.56561939 0 0 Z " fill="#5D5D5D" transform="translate(39,110)"/>
<path d="M0 0 C0.5775 0.804375 1.155 1.60875 1.75 2.4375 C3.98126893 4.97866739 4.74456771 5.65120368 8 6 C7.34 7.32 6.68 8.64 6 10 C7.32 10.33 8.64 10.66 10 11 C9.34 12.32 8.68 13.64 8 15 C6.65828736 13.06829319 5.32687117 11.12943124 4 9.1875 C3.2575 8.10855469 2.515 7.02960938 1.75 5.91796875 C0 3 0 3 0 0 Z " fill="#767676" transform="translate(74,321)"/>
<path d="M0 0 C3.87132028 0.57352893 6.08172796 2.48704352 9 5 C8.01 5.99 7.02 6.98 6 8 C1.3125 4.38671875 1.3125 4.38671875 0 3 C0 2.01 0 1.02 0 0 Z " fill="#0E0E0E" transform="translate(301,74)"/>
<path d="M0 0 C1.25541557 3.76624671 0.37061958 5.37188934 -1 9 C-3.31 9.33 -5.62 9.66 -8 10 C-7.04367001 8.70684939 -6.08486149 7.41553147 -5.125 6.125 C-4.59132813 5.40570313 -4.05765625 4.68640625 -3.5078125 3.9453125 C-2 2 -2 2 0 0 Z " fill="#DEDEDE" transform="translate(130,103)"/>
<path d="M0 0 C0.99 0.33 1.98 0.66 3 1 C1.66511872 4.59391114 0.03977277 7.75490696 -2 11 C-4 8 -4 8 -3.8125 5.9375 C-3 4 -3 4 0 2 C0 1.34 0 0.68 0 0 Z " fill="#4E4E4E" transform="translate(517,211)"/>
<path d="M0 0 C0.76183594 -0.00515625 1.52367187 -0.0103125 2.30859375 -0.015625 C4.5625 0.25 4.5625 0.25 8.5625 2.25 C4.9325 2.25 1.3025 2.25 -2.4375 2.25 C-2.7675 3.24 -3.0975 4.23 -3.4375 5.25 C-5.0875 5.25 -6.7375 5.25 -8.4375 5.25 C-6.90044548 0.63883645 -4.5179811 -0.03047542 0 0 Z " fill="#484848" transform="translate(127.4375,158.75)"/>
<path d="M0 0 C0.66 1.32 1.32 2.64 2 4 C1.54625 4.4125 1.0925 4.825 0.625 5.25 C-1.32917823 7.19019186 -1.32917823 7.19019186 -3 11 C-3 8.03 -3 5.06 -3 2 C-2.01 2 -1.02 2 0 2 C0 1.34 0 0.68 0 0 Z " fill="#0E0E0E" transform="translate(121,162)"/>
<path d="M0 0 C0.66 0.33 1.32 0.66 2 1 C0.35086452 3.69069473 -0.52629422 4.83824681 -3.5625 5.875 C-4.366875 5.91625 -5.17125 5.9575 -6 6 C-6.66 5.34 -7.32 4.68 -8 4 C-6.71349294 3.30289269 -5.42059335 2.61757124 -4.125 1.9375 C-3.40570313 1.55464844 -2.68640625 1.17179687 -1.9453125 0.77734375 C-1.30335938 0.52082031 -0.66140625 0.26429687 0 0 Z " fill="#DADADA" transform="translate(193,58)"/>
<path d="M0 0 C0 3 0 3 -2 6 C-2.66 6 -3.32 6 -4 6 C-4.33 6.66 -4.66 7.32 -5 8 C-5.33 6.35 -5.66 4.7 -6 3 C-4.02 2.01 -2.04 1.02 0 0 Z " fill="#6B6B6B" transform="translate(458,414)"/>
<path d="M0 0 C0.33 0.99 0.66 1.98 1 3 C-2.28804981 5.91227269 -4.59885603 7.49701212 -9 8 C-6.14723863 5.06799526 -3.34920216 2.35684596 0 0 Z " fill="#262626" transform="translate(434,413)"/>
<path d="M0 0 C2.91488977 2.6234008 4.88503898 5.71816394 7 9 C6.67 9.66 6.34 10.32 6 11 C1.9957657 7.50912907 0.37328935 5.35048061 0 0 Z " fill="#DBDBDB" transform="translate(392,70)"/>
<path d="M0 0 C1.67542976 0.28604898 3.34385343 0.61781233 5 1 C2.64722731 3.72426311 0.37503669 4.8141763 -3 6 C-3.33 5.01 -3.66 4.02 -4 3 C-3.01 2.34 -2.02 1.68 -1 1 C-0.67 0.67 -0.34 0.34 0 0 Z " fill="#4B4B4B" transform="translate(433,434)"/>
<path d="M0 0 C0.99 0.33 1.98 0.66 3 1 C3.33 3.31 3.66 5.62 4 8 C-0.875 4.375 -0.875 4.375 -2 1 C-1.34 0.67 -0.68 0.34 0 0 Z " fill="#5D5D5D" transform="translate(108,364)"/>
<path d="M0 0 C0.66 0.33 1.32 0.66 2 1 C2 1.99 2 2.98 2 4 C2.99 4 3.98 4 5 4 C5 4.99 5 5.98 5 7 C1.63408134 5.55746343 -0.51047079 3.66735273 -3 1 C-2.01 0.67 -1.02 0.34 0 0 Z " fill="#2C2C2C" transform="translate(326,97)"/>
<path d="M0 0 C2.31 0.33 4.62 0.66 7 1 C5.35 2.65 3.7 4.3 2 6 C1.34 4.02 0.68 2.04 0 0 Z " fill="#3B3B3B" transform="translate(500,361)"/>
<path d="M0 0 C1.65 0 3.3 0 5 0 C5.33 0.99 5.66 1.98 6 3 C3.525 4.485 3.525 4.485 1 6 C0 3 0 3 0 0 Z " fill="#191919" transform="translate(146,82)"/>
<path d="M0 0 C0.8971875 0.309375 0.8971875 0.309375 1.8125 0.625 C-0.41575644 2.85325644 -1.84511628 3.31739369 -4.8125 4.25 C-5.62976563 4.51039062 -6.44703125 4.77078125 -7.2890625 5.0390625 C-7.91554688 5.23242188 -8.54203125 5.42578125 -9.1875 5.625 C-3.21691176 -0.55147059 -3.21691176 -0.55147059 0 0 Z " fill="#808080" transform="translate(72.1875,79.375)"/>
<path d="M0 0 C0.66 0.33 1.32 0.66 2 1 C0.92892883 1.86949317 -0.15745944 2.72014205 -1.25 3.5625 C-1.85328125 4.03816406 -2.4565625 4.51382813 -3.078125 5.00390625 C-5 6 -5 6 -7.234375 5.65234375 C-7.81703125 5.43707031 -8.3996875 5.22179688 -9 5 C-7.54735962 4.1361871 -6.0876837 3.28419546 -4.625 2.4375 C-3.40683594 1.72400391 -3.40683594 1.72400391 -2.1640625 0.99609375 C-1.44992188 0.66738281 -0.73578125 0.33867188 0 0 Z " fill="#A7A7A7" transform="translate(188,38)"/>
<path d="M0 0 C1.32 1.32 2.64 2.64 4 4 C3.67 4.99 3.34 5.98 3 7 C2.34 6.67 1.68 6.34 1 6 C0.34 6 -0.32 6 -1 6 C-0.67 4.02 -0.34 2.04 0 0 Z " fill="#EEEEEE" transform="translate(372,49)"/>
<path d="M0 0 C0.66 0.33 1.32 0.66 2 1 C1.21625 1.2475 0.4325 1.495 -0.375 1.75 C-3.32317108 3.15389099 -3.9024777 4.00675737 -5 7 C-5.99 6.34 -6.98 5.68 -8 5 C-6.71475739 4.13619741 -5.42157581 3.28419631 -4.125 2.4375 C-3.04605469 1.72400391 -3.04605469 1.72400391 -1.9453125 0.99609375 C-1.30335938 0.66738281 -0.66140625 0.33867188 0 0 Z " fill="#939393" transform="translate(173,46)"/>
<path d="M0 0 C-1.28965176 1.37562854 -2.62689293 2.70766393 -4 4 C-4.66 4 -5.32 4 -6 4 C-6 3.34 -6 2.68 -6 2 C-6.66 1.67 -7.32 1.34 -8 1 C-3.375 -1.125 -3.375 -1.125 0 0 Z " fill="#232323" transform="translate(480,360)"/>
<path d="M0 0 C0.66 1.32 1.32 2.64 2 4 C0.68 4.99 -0.64 5.98 -2 7 C-2.66 6.67 -3.32 6.34 -4 6 C-2.68 4.02 -1.36 2.04 0 0 Z " fill="#2E2E2E" transform="translate(502,336)"/>
<path d="M0 0 C1 3 1 3 -0.25 6.125 C-2 9 -2 9 -5 10 C-3.66511872 6.40608886 -2.03977277 3.24509304 0 0 Z " fill="#D1D1D1" transform="translate(56,120)"/>
<path d="M0 0 C0.66 0.99 1.32 1.98 2 3 C-0.64 4.98 -3.28 6.96 -6 9 C-4.25618453 5.51236907 -2.47193291 2.96631949 0 0 Z " fill="#CBCBCB" transform="translate(121,113)"/>
<path d="M0 0 C0.99 0.33 1.98 0.66 3 1 C2.25 5.75 2.25 5.75 0 8 C-1.125 2.25 -1.125 2.25 0 0 Z " fill="#595959" transform="translate(521,335)"/>
<path d="M0 0 C2.31 1.98 4.62 3.96 7 6 C6.67 6.66 6.34 7.32 6 8 C3.5625 6.8125 3.5625 6.8125 1 5 C0.1875 2.3125 0.1875 2.3125 0 0 Z " fill="#696969" transform="translate(509,242)"/>
<path d="M0 0 C-5.07006276 2.53503138 -7.21472229 2.96421295 -13 2 C-13 1.67 -13 1.34 -13 1 C-8.60563789 0.14256349 -4.47427924 -0.08948558 0 0 Z " fill="#565656" transform="translate(400,241)"/>
<path d="M0 0 C0.99 0 1.98 0 3 0 C1.95125002 2.62187494 1.35068687 3.79371361 -1.125 5.25 C-1.74375 5.4975 -2.3625 5.745 -3 6 C-1.125 1.125 -1.125 1.125 0 0 Z " fill="#5C5C5C" transform="translate(43,104)"/>
</svg>
