<?xml version="1.0" encoding="UTF-8"?>
<svg version="1.1" xmlns="http://www.w3.org/2000/svg" width="441" height="566">
<path d="M0 0 C0.72578751 -0.00524185 1.45157501 -0.0104837 2.19935608 -0.0158844 C3.72460662 -0.022268 5.24990663 -0.0210154 6.77514648 -0.01245117 C9.08863316 -0.00393945 11.39964696 -0.03275139 13.71289062 -0.06445312 C21.39466188 -0.10101743 27.5901658 0.01023385 34.16015625 4.43359375 C34.77793945 4.84794678 35.39572266 5.2622998 36.03222656 5.68920898 C43.4093153 10.84699156 47.86321571 20.64306303 49.8137207 29.20117188 C50.4993165 33.61913382 50.40373852 38.03607754 50.34765625 42.49609375 C50.34668945 43.86991211 50.34668945 43.86991211 50.34570312 45.27148438 C50.3161143 50.23254362 50.1830675 55.18135095 49.92871094 60.13574219 C49.09930479 76.4018493 49.00546797 92.64008712 49.02978516 108.92236328 C49.03549198 112.7889399 49.03207493 116.65544793 49.02636337 120.52202225 C48.996144 140.66604889 48.996144 140.66604889 49.54296875 160.80078125 C49.58851395 162.03974655 49.58851395 162.03974655 49.63497925 163.30374146 C49.84131382 167.36561608 50.16980022 170.84391925 52.16015625 174.43359375 C53.91367297 175.6026049 55.68208783 176.75307299 57.50390625 177.8125 C68.20299607 184.34209158 77.7590584 192.35836739 86.73925781 201.05957031 C88.03135075 202.3090375 89.34094018 203.54034734 90.65234375 204.76953125 C96.58460288 210.45546821 101.44856287 216.71324479 106.16015625 223.43359375 C107.29130859 225.04041016 107.29130859 225.04041016 108.4453125 226.6796875 C118.41937075 241.26962729 124.56193309 257.18513449 128.16015625 274.43359375 C128.32386719 275.19849121 128.48757813 275.96338867 128.65625 276.75146484 C134.01830631 303.05766879 132.25283141 331.27313862 127.16015625 357.43359375 C126.99467285 358.31337891 126.82918945 359.19316406 126.65869141 360.09960938 C124.94792797 369.04929127 122.67121296 377.55982866 119.42578125 386.09375 C118.59310495 388.29109023 117.81005735 390.50799147 117.08203125 392.7421875 C114.70196715 399.99132639 111.70032467 406.62099893 108.16015625 413.37109375 C107.74483643 414.16410889 107.3295166 414.95712402 106.90161133 415.77416992 C104.30231285 420.61443684 101.39514159 424.99656763 98.16015625 429.43359375 C97.41765625 430.98046875 97.41765625 430.98046875 96.66015625 432.55859375 C94.93056631 435.87364114 92.83110166 437.82476335 90.16015625 440.43359375 C89.16019018 441.70922614 88.18225956 443.00232746 87.22265625 444.30859375 C82.1438971 451.19658007 76.73916412 456.9399552 70.16015625 462.43359375 C70.62421875 464.35171875 70.62421875 464.35171875 71.09765625 466.30859375 C73.31424917 476.60450725 74.26177964 486.07105239 68.90234375 495.69140625 C67.4329208 497.73896283 65.86394481 499.57740209 64.16015625 501.43359375 C63.61875 502.07683594 63.07734375 502.72007812 62.51953125 503.3828125 C47.39047013 520.12344752 22.79994093 526.33079226 1.16015625 528.43359375 C-1.92865494 528.58540885 -5.013246 528.62058754 -8.10546875 528.63671875 C-8.97894958 528.64241882 -9.85243042 528.6481189 -10.75238037 528.6539917 C-12.59792898 528.66339331 -14.44349401 528.6699563 -16.2890625 528.67382812 C-19.04068557 528.68342235 -21.79152395 528.71444521 -24.54296875 528.74609375 C-40.38450164 528.84173511 -56.21413008 527.46738686 -71.40234375 522.68359375 C-72.22895508 522.42900391 -73.05556641 522.17441406 -73.90722656 521.91210938 C-80.61479568 519.7334023 -86.22335252 516.72062394 -91.83984375 512.43359375 C-92.64292969 511.87027344 -93.44601563 511.30695313 -94.2734375 510.7265625 C-98.30140506 507.85742097 -98.30140506 507.85742097 -99.83984375 506.43359375 C-99.83984375 505.77359375 -99.83984375 505.11359375 -99.83984375 504.43359375 C-100.49984375 504.43359375 -101.15984375 504.43359375 -101.83984375 504.43359375 C-103.4609375 502.421875 -103.4609375 502.421875 -105.27734375 499.74609375 C-105.87417969 498.87597656 -106.47101563 498.00585938 -107.0859375 497.109375 C-112.32830274 489.1115572 -114.52745199 483.23206943 -112.90332031 473.57519531 C-111.87335575 467.41193031 -111.87335575 467.41193031 -114.04492188 461.75292969 C-117.3789462 458.51503981 -121.22502329 456.04511386 -125.14013672 453.56933594 C-127.32737598 452.1078253 -129.10087888 450.40637193 -130.90234375 448.49609375 C-132.71693281 446.57690432 -134.36873558 445.01803588 -136.46484375 443.37109375 C-139.41049397 440.96806331 -141.53647311 438.46088088 -143.83984375 435.43359375 C-143.83984375 434.77359375 -143.83984375 434.11359375 -143.83984375 433.43359375 C-144.73062622 433.06234375 -144.73062622 433.06234375 -145.6394043 432.68359375 C-148.19036335 431.23447466 -149.335329 429.80493319 -151.046875 427.43359375 C-151.63017578 426.63373047 -152.21347656 425.83386719 -152.81445312 425.00976562 C-153.42095703 424.15962891 -154.02746094 423.30949219 -154.65234375 422.43359375 C-155.59110352 421.13518555 -155.59110352 421.13518555 -156.54882812 419.81054688 C-157.77812939 418.10695837 -159.00368353 416.4006584 -160.22509766 414.69140625 C-161.50644221 412.89977117 -162.80160691 411.11802135 -164.1015625 409.33984375 C-178.49714549 389.41247493 -188.17244373 365.43736529 -192.83984375 341.43359375 C-193.03964844 340.47066406 -193.23945313 339.50773437 -193.4453125 338.515625 C-195.27867361 324.19362582 -194.33610939 310.12464485 -189.83984375 296.43359375 C-189.38931641 294.94859375 -189.38931641 294.94859375 -188.9296875 293.43359375 C-185.08109083 281.70453722 -178.50960147 272.11728998 -169.83984375 263.43359375 C-169.01742187 262.59957031 -168.195 261.76554687 -167.34765625 260.90625 C-160.23256206 254.0550688 -152.40543542 249.21922796 -143.83984375 244.43359375 C-144.42478588 239.03521212 -145.75546817 234.38247362 -147.65234375 229.30859375 C-149.57004089 224.05124136 -151.37912596 218.80355439 -152.96484375 213.43359375 C-154.28655406 209.02061056 -155.8853296 204.96147205 -157.84375 200.80078125 C-159.04825623 197.93830763 -159.90438557 195.03857148 -160.77734375 192.05859375 C-162.01533506 187.88037309 -163.40416662 183.99226571 -165.27734375 180.05859375 C-167.83344446 174.66584469 -169.6916911 169.1232224 -171.5234375 163.453125 C-172.87752263 159.26973083 -174.35582886 155.13479387 -175.83984375 150.99609375 C-187.05926706 119.46032036 -187.05926706 119.46032036 -187.83984375 105.43359375 C-187.89269531 104.55574219 -187.94554687 103.67789063 -188 102.7734375 C-188.57916793 84.06379535 -182.80893458 65.15362896 -169.96484375 51.24609375 C-159.16115339 40.22017558 -147.42318297 33.46080511 -131.77734375 32.18359375 C-123.05229302 32.73756523 -114.68967481 34.79744635 -107.83984375 40.43359375 C-105.58984375 42.99609375 -105.58984375 42.99609375 -103.83984375 45.43359375 C-103.17984375 46.03171875 -102.51984375 46.62984375 -101.83984375 47.24609375 C-97.08090674 52.4511811 -95.03895313 59.35127165 -93.10546875 66.0078125 C-92.61309477 67.65132747 -92.12057646 69.2947992 -91.62792969 70.93823242 C-91.25130188 72.20889053 -91.25130188 72.20889053 -90.86706543 73.50521851 C-86.68600721 87.57729985 -82.34638483 101.49649315 -76.79296875 115.09765625 C-75.75097961 117.65138374 -74.73155875 120.21345375 -73.71484375 122.77734375 C-72.0853331 126.88029793 -70.4425237 130.97763556 -68.79101562 135.07177734 C-67.13279211 139.18924508 -65.48670514 143.3115711 -63.83984375 147.43359375 C-63.71867188 146.1496875 -63.5975 144.86578125 -63.47265625 143.54296875 C-63.30343574 141.75650565 -63.13416041 139.97004774 -62.96484375 138.18359375 C-62.87388428 137.22050293 -62.7829248 136.25741211 -62.68920898 135.26513672 C-62.26778487 130.82691173 -61.84192205 126.38990293 -61.3671875 121.95703125 C-60.49092822 113.70350333 -59.75243153 105.44999083 -59.15234375 97.171875 C-59.09082626 96.33323914 -59.02930878 95.49460327 -58.96592712 94.6305542 C-58.65654709 90.40618543 -58.35534919 86.18153174 -58.06860352 81.95556641 C-57.48474266 73.67814626 -56.68422004 65.46942316 -55.44921875 57.26171875 C-55.28547508 56.12427467 -55.28547508 56.12427467 -55.11842346 54.96385193 C-53.31941246 43.7308381 -48.34992985 32.98965284 -40.83984375 24.43359375 C-40.40800781 23.89605469 -39.97617188 23.35851562 -39.53125 22.8046875 C-30.03987822 11.00700109 -15.74652251 -0.06773223 0 0 Z " fill="#FCFCFC" transform="translate(251.83984375,18.56640625)"/>
<path d="M0 0 C0.72578751 -0.00524185 1.45157501 -0.0104837 2.19935608 -0.0158844 C3.72460662 -0.022268 5.24990663 -0.0210154 6.77514648 -0.01245117 C9.08863316 -0.00393945 11.39964696 -0.03275139 13.71289062 -0.06445312 C21.39466188 -0.10101743 27.5901658 0.01023385 34.16015625 4.43359375 C34.77793945 4.84794678 35.39572266 5.2622998 36.03222656 5.68920898 C43.4093153 10.84699156 47.86321571 20.64306303 49.8137207 29.20117188 C50.4993165 33.61913382 50.40373852 38.03607754 50.34765625 42.49609375 C50.34668945 43.86991211 50.34668945 43.86991211 50.34570312 45.27148438 C50.3161143 50.23254362 50.1830675 55.18135095 49.92871094 60.13574219 C49.09930479 76.4018493 49.00546797 92.64008712 49.02978516 108.92236328 C49.03549198 112.7889399 49.03207493 116.65544793 49.02636337 120.52202225 C48.996144 140.66604889 48.996144 140.66604889 49.54296875 160.80078125 C49.58851395 162.03974655 49.58851395 162.03974655 49.63497925 163.30374146 C49.84131382 167.36561608 50.16980022 170.84391925 52.16015625 174.43359375 C53.91367297 175.6026049 55.68208783 176.75307299 57.50390625 177.8125 C68.20299607 184.34209158 77.7590584 192.35836739 86.73925781 201.05957031 C88.03135075 202.3090375 89.34094018 203.54034734 90.65234375 204.76953125 C96.58460288 210.45546821 101.44856287 216.71324479 106.16015625 223.43359375 C107.29130859 225.04041016 107.29130859 225.04041016 108.4453125 226.6796875 C118.41937075 241.26962729 124.56193309 257.18513449 128.16015625 274.43359375 C128.32386719 275.19849121 128.48757813 275.96338867 128.65625 276.75146484 C134.01830631 303.05766879 132.25283141 331.27313862 127.16015625 357.43359375 C126.99467285 358.31337891 126.82918945 359.19316406 126.65869141 360.09960938 C124.94792797 369.04929127 122.67121296 377.55982866 119.42578125 386.09375 C118.59310495 388.29109023 117.81005735 390.50799147 117.08203125 392.7421875 C114.70196715 399.99132639 111.70032467 406.62099893 108.16015625 413.37109375 C107.74483643 414.16410889 107.3295166 414.95712402 106.90161133 415.77416992 C104.30231285 420.61443684 101.39514159 424.99656763 98.16015625 429.43359375 C97.41765625 430.98046875 97.41765625 430.98046875 96.66015625 432.55859375 C94.93056631 435.87364114 92.83110166 437.82476335 90.16015625 440.43359375 C89.16019018 441.70922614 88.18225956 443.00232746 87.22265625 444.30859375 C82.1438971 451.19658007 76.73916412 456.9399552 70.16015625 462.43359375 C70.62421875 464.35171875 70.62421875 464.35171875 71.09765625 466.30859375 C73.31424917 476.60450725 74.26177964 486.07105239 68.90234375 495.69140625 C67.4329208 497.73896283 65.86394481 499.57740209 64.16015625 501.43359375 C63.61875 502.07683594 63.07734375 502.72007812 62.51953125 503.3828125 C47.39047013 520.12344752 22.79994093 526.33079226 1.16015625 528.43359375 C-1.92865494 528.58540885 -5.013246 528.62058754 -8.10546875 528.63671875 C-8.97894958 528.64241882 -9.85243042 528.6481189 -10.75238037 528.6539917 C-12.59792898 528.66339331 -14.44349401 528.6699563 -16.2890625 528.67382812 C-19.04068557 528.68342235 -21.79152395 528.71444521 -24.54296875 528.74609375 C-40.38450164 528.84173511 -56.21413008 527.46738686 -71.40234375 522.68359375 C-72.22895508 522.42900391 -73.05556641 522.17441406 -73.90722656 521.91210938 C-80.61479568 519.7334023 -86.22335252 516.72062394 -91.83984375 512.43359375 C-92.64292969 511.87027344 -93.44601563 511.30695313 -94.2734375 510.7265625 C-98.30140506 507.85742097 -98.30140506 507.85742097 -99.83984375 506.43359375 C-99.83984375 505.77359375 -99.83984375 505.11359375 -99.83984375 504.43359375 C-100.49984375 504.43359375 -101.15984375 504.43359375 -101.83984375 504.43359375 C-103.4609375 502.421875 -103.4609375 502.421875 -105.27734375 499.74609375 C-105.87417969 498.87597656 -106.47101563 498.00585938 -107.0859375 497.109375 C-112.32830274 489.1115572 -114.52745199 483.23206943 -112.90332031 473.57519531 C-111.87335575 467.41193031 -111.87335575 467.41193031 -114.04492188 461.75292969 C-117.3789462 458.51503981 -121.22502329 456.04511386 -125.14013672 453.56933594 C-127.32737598 452.1078253 -129.10087888 450.40637193 -130.90234375 448.49609375 C-132.71693281 446.57690432 -134.36873558 445.01803588 -136.46484375 443.37109375 C-139.41049397 440.96806331 -141.53647311 438.46088088 -143.83984375 435.43359375 C-143.83984375 434.77359375 -143.83984375 434.11359375 -143.83984375 433.43359375 C-144.73062622 433.06234375 -144.73062622 433.06234375 -145.6394043 432.68359375 C-148.19036335 431.23447466 -149.335329 429.80493319 -151.046875 427.43359375 C-151.63017578 426.63373047 -152.21347656 425.83386719 -152.81445312 425.00976562 C-153.42095703 424.15962891 -154.02746094 423.30949219 -154.65234375 422.43359375 C-155.59110352 421.13518555 -155.59110352 421.13518555 -156.54882812 419.81054688 C-157.77812939 418.10695837 -159.00368353 416.4006584 -160.22509766 414.69140625 C-161.50644221 412.89977117 -162.80160691 411.11802135 -164.1015625 409.33984375 C-178.49714549 389.41247493 -188.17244373 365.43736529 -192.83984375 341.43359375 C-193.03964844 340.47066406 -193.23945313 339.50773437 -193.4453125 338.515625 C-195.27867361 324.19362582 -194.33610939 310.12464485 -189.83984375 296.43359375 C-189.38931641 294.94859375 -189.38931641 294.94859375 -188.9296875 293.43359375 C-185.08109083 281.70453722 -178.50960147 272.11728998 -169.83984375 263.43359375 C-169.01742187 262.59957031 -168.195 261.76554687 -167.34765625 260.90625 C-160.23256206 254.0550688 -152.40543542 249.21922796 -143.83984375 244.43359375 C-144.42478588 239.03521212 -145.75546817 234.38247362 -147.65234375 229.30859375 C-149.57004089 224.05124136 -151.37912596 218.80355439 -152.96484375 213.43359375 C-154.28655406 209.02061056 -155.8853296 204.96147205 -157.84375 200.80078125 C-159.04825623 197.93830763 -159.90438557 195.03857148 -160.77734375 192.05859375 C-162.01533506 187.88037309 -163.40416662 183.99226571 -165.27734375 180.05859375 C-167.83344446 174.66584469 -169.6916911 169.1232224 -171.5234375 163.453125 C-172.87752263 159.26973083 -174.35582886 155.13479387 -175.83984375 150.99609375 C-187.05926706 119.46032036 -187.05926706 119.46032036 -187.83984375 105.43359375 C-187.89269531 104.55574219 -187.94554687 103.67789063 -188 102.7734375 C-188.57916793 84.06379535 -182.80893458 65.15362896 -169.96484375 51.24609375 C-159.16115339 40.22017558 -147.42318297 33.46080511 -131.77734375 32.18359375 C-123.05229302 32.73756523 -114.68967481 34.79744635 -107.83984375 40.43359375 C-105.58984375 42.99609375 -105.58984375 42.99609375 -103.83984375 45.43359375 C-103.17984375 46.03171875 -102.51984375 46.62984375 -101.83984375 47.24609375 C-97.08090674 52.4511811 -95.03895313 59.35127165 -93.10546875 66.0078125 C-92.61309477 67.65132747 -92.12057646 69.2947992 -91.62792969 70.93823242 C-91.25130188 72.20889053 -91.25130188 72.20889053 -90.86706543 73.50521851 C-86.68600721 87.57729985 -82.34638483 101.49649315 -76.79296875 115.09765625 C-75.75097961 117.65138374 -74.73155875 120.21345375 -73.71484375 122.77734375 C-72.0853331 126.88029793 -70.4425237 130.97763556 -68.79101562 135.07177734 C-67.13279211 139.18924508 -65.48670514 143.3115711 -63.83984375 147.43359375 C-63.71867188 146.1496875 -63.5975 144.86578125 -63.47265625 143.54296875 C-63.30343574 141.75650565 -63.13416041 139.97004774 -62.96484375 138.18359375 C-62.87388428 137.22050293 -62.7829248 136.25741211 -62.68920898 135.26513672 C-62.26778487 130.82691173 -61.84192205 126.38990293 -61.3671875 121.95703125 C-60.49092822 113.70350333 -59.75243153 105.44999083 -59.15234375 97.171875 C-59.09082626 96.33323914 -59.02930878 95.49460327 -58.96592712 94.6305542 C-58.65654709 90.40618543 -58.35534919 86.18153174 -58.06860352 81.95556641 C-57.48474266 73.67814626 -56.68422004 65.46942316 -55.44921875 57.26171875 C-55.28547508 56.12427467 -55.28547508 56.12427467 -55.11842346 54.96385193 C-53.31941246 43.7308381 -48.34992985 32.98965284 -40.83984375 24.43359375 C-40.40800781 23.89605469 -39.97617188 23.35851562 -39.53125 22.8046875 C-30.03987822 11.00700109 -15.74652251 -0.06773223 0 0 Z M-30.83984375 34.43359375 C-38.88536404 45.78201184 -41.80530027 57.2598093 -42.8046875 70.90625 C-42.88257507 71.89485016 -42.96046265 72.88345032 -43.04071045 73.90200806 C-43.29181449 77.09963086 -43.53452962 80.29783183 -43.77734375 83.49609375 C-44.12297195 87.93125396 -44.47323008 92.36604238 -44.82421875 96.80078125 C-44.91019821 97.89329697 -44.99617767 98.98581268 -45.08476257 100.11143494 C-45.80003388 109.12529714 -46.64008848 118.12282797 -47.52734375 127.12109375 C-48.60873985 138.32745116 -49.48441768 149.49748888 -49.76367188 160.75439453 C-49.81643031 162.61007106 -49.88662062 164.46530299 -49.97070312 166.31982422 C-51.07510093 190.78063498 -43.63974555 211.69430873 -35.80371094 234.53808594 C-35.54276642 235.30254028 -35.2818219 236.06699463 -35.01296997 236.85461426 C-34.51803217 238.30187901 -34.01925034 239.7478366 -33.51608276 241.19226074 C-32.53090844 244.0762889 -31.83984375 246.36151527 -31.83984375 249.43359375 C-37.21909891 241.98668739 -42.10076378 234.30088221 -46.83984375 226.43359375 C-47.24203125 225.79808594 -47.64421875 225.16257813 -48.05859375 224.5078125 C-50.96036978 219.79242646 -52.75735126 214.65880164 -54.6875 209.49609375 C-55.51841299 207.28783687 -56.41042668 205.10223359 -57.33984375 202.93359375 C-60.09422733 196.50669874 -62.50504641 189.94026473 -64.9921875 183.40625 C-67.83734265 175.9628643 -70.78049488 168.56190195 -73.75048828 161.16772461 C-76.04852563 155.43775701 -78.30235421 149.69228183 -80.52734375 143.93359375 C-83.1876392 137.05144329 -85.95078366 130.22355064 -88.83984375 123.43359375 C-89.49984375 123.43359375 -90.15984375 123.43359375 -90.83984375 123.43359375 C-90.90300781 122.84835938 -90.96617187 122.263125 -91.03125 121.66015625 C-92.18813254 113.54980077 -95.0176798 106.39756775 -98.0859375 98.86328125 C-101.86055578 89.49000594 -104.4956814 79.79220148 -107.14648438 70.05273438 C-109.26716702 62.55713669 -111.27086498 56.8537271 -117.83984375 52.18359375 C-118.49984375 51.7040625 -119.15984375 51.22453125 -119.83984375 50.73046875 C-126.02892066 46.71723919 -131.53796629 46.51782 -138.83984375 47.43359375 C-152.57089033 52.08790508 -161.34733021 61.90765964 -168.08984375 74.37109375 C-174.82364916 89.08678058 -174.88142346 106.16832279 -169.83984375 121.43359375 C-169.28703431 123.19988733 -168.73647639 124.96688632 -168.1875 126.734375 C-163.86104469 140.56842058 -159.43261747 154.37225487 -154.09765625 167.85546875 C-153.78795898 168.64058838 -153.47826172 169.42570801 -153.15917969 170.23461914 C-152.54461723 171.78770808 -151.92569976 173.33908312 -151.30175781 174.88842773 C-149.40344289 179.68447699 -147.99045371 184.40394725 -146.83984375 189.43359375 C-146.17984375 189.43359375 -145.51984375 189.43359375 -144.83984375 189.43359375 C-144.72954834 190.2519873 -144.61925293 191.07038086 -144.50561523 191.91357422 C-143.73132605 196.0073408 -142.51752339 199.81262789 -141.1875 203.75390625 C-140.92730576 204.53498749 -140.66711151 205.31606873 -140.39903259 206.12081909 C-139.85062094 207.76372344 -139.30000789 209.40589442 -138.74731445 211.04736328 C-137.90330234 213.55574484 -137.06735155 216.06670759 -136.23242188 218.578125 C-135.6970902 220.17854459 -135.16129858 221.77881041 -134.625 223.37890625 C-134.37597427 224.12689484 -134.12694855 224.87488342 -133.87037659 225.64553833 C-132.72401546 229.03849042 -131.51226145 232.26605655 -129.83984375 235.43359375 C-129.49673906 236.83868914 -129.20909121 238.25798614 -128.96484375 239.68359375 C-127.87759858 245.58081154 -126.31530454 251.3313341 -124.7421875 257.11328125 C-122.49952512 266.69556595 -122.63596207 276.76998094 -122.58984375 286.55859375 C-122.56921875 287.66074219 -122.54859375 288.76289063 -122.52734375 289.8984375 C-122.49387315 296.95236644 -123.42296063 302.81553594 -125.83984375 309.43359375 C-126.17411377 310.453927 -126.17411377 310.453927 -126.51513672 311.49487305 C-130.47579108 323.56359596 -138.25843884 334.64367142 -144.83984375 345.43359375 C-142.46839785 334.82449366 -139.71786224 323.18963073 -134.83984375 313.43359375 C-133.76072267 305.18669365 -133.64616841 296.86381062 -133.65234375 288.55859375 C-133.65314941 287.42542725 -133.65395508 286.29226074 -133.65478516 285.12475586 C-133.31034878 271.16756664 -133.31034878 271.16756664 -137.83984375 258.43359375 C-142.13637532 259.89489099 -145.48640228 262.16318147 -149.02734375 264.93359375 C-149.59541748 265.37791748 -150.16349121 265.82224121 -150.7487793 266.2800293 C-165.18875466 277.76918303 -176.17457054 291.78015168 -178.83984375 310.43359375 C-180.18931998 326.94095627 -179.59330258 343.16195318 -172.83984375 358.43359375 C-171.97345312 360.61628113 -171.11893849 362.80372625 -170.27734375 364.99609375 C-169.65666016 366.60677734 -169.65666016 366.60677734 -169.0234375 368.25 C-167.8926849 371.29146327 -166.84637579 374.34906009 -165.83984375 377.43359375 C-165.17984375 377.43359375 -164.51984375 377.43359375 -163.83984375 377.43359375 C-163.58976562 378.27148438 -163.3396875 379.109375 -163.08203125 379.97265625 C-158.35623684 393.13949224 -149.48531928 404.61185313 -140.83984375 415.43359375 C-140.38883301 416.00174805 -139.93782227 416.56990234 -139.47314453 417.15527344 C-124.77992647 435.51498604 -106.31717931 454.99500361 -83.83984375 463.43359375 C-82.39792665 464.2171864 -80.96058259 465.00923852 -79.52734375 465.80859375 C-63.53442676 473.88872221 -45.61386426 473.64398012 -28.15234375 473.62109375 C-27.2369986 473.62015717 -26.32165344 473.61922058 -25.37857056 473.61825562 C7.84321317 473.54447385 39.95264116 471.92976684 64.72265625 447.30859375 C75.57322363 436.28598348 84.12407361 424.38885912 92.08642578 411.18017578 C92.9784363 409.72918823 93.92069906 408.30923776 94.875 406.8984375 C99.99985654 399.19076202 102.47586055 390.37864816 105.38916016 381.66943359 C106.31554896 378.98296472 107.36731639 376.36357142 108.47265625 373.74609375 C110.26271095 369.38140718 111.32808116 365.0705213 112.16015625 360.43359375 C112.40378906 359.07814453 112.40378906 359.07814453 112.65234375 357.6953125 C112.99123073 355.72716119 113.31592494 353.75651399 113.62646484 351.78369141 C113.96010002 349.68939048 114.31068818 347.59763883 114.68652344 345.51049805 C116.33848034 335.5840347 116.4659995 325.81682671 116.42089844 315.77490234 C116.41017389 312.93825919 116.42085369 310.1022491 116.43359375 307.265625 C116.44759969 290.16176162 115.80975969 270.49630018 107.1328125 255.25390625 C106.03540613 253.20012566 105.35015927 251.13657359 104.59765625 248.93359375 C99.53371353 236.07592667 89.7065514 225.173965 80.16015625 215.43359375 C78.87431641 214.08974609 78.87431641 214.08974609 77.5625 212.71875 C72.42896134 207.44239264 67.10429967 202.77061691 61.16015625 198.43359375 C60.4846875 197.92570313 59.80921875 197.4178125 59.11328125 196.89453125 C55.96956001 194.3067417 55.96956001 194.3067417 52.16015625 193.43359375 C52.89232347 205.77677651 53.78616707 218.10445195 54.72265625 230.43359375 C54.8627245 232.2877533 55.00269899 234.14191993 55.14257812 235.99609375 C55.48069394 240.47534254 55.82006465 244.95449456 56.16015625 249.43359375 C55.68964844 248.28761719 55.21914063 247.14164063 54.734375 245.9609375 C54.10549608 244.43097835 53.4765883 242.90103106 52.84765625 241.37109375 C52.53892578 240.61892578 52.23019531 239.86675781 51.91210938 239.09179688 C50.47942233 235.60810521 49.03438631 232.13388084 47.5234375 228.68334961 C46.38000274 225.95765833 45.4462511 223.34286757 44.66015625 220.5 C44.41426758 219.61248047 44.16837891 218.72496094 43.91503906 217.81054688 C43.54137207 216.41739258 43.54137207 216.41739258 43.16015625 214.99609375 C42.8981543 214.01962891 42.63615234 213.04316406 42.36621094 212.03710938 C38.30056552 196.61499738 36.22164578 181.33016108 35.16015625 165.43359375 C35.02552979 163.51546875 35.02552979 163.51546875 34.88818359 161.55859375 C33.88099436 145.66388869 34.00725289 129.74119102 34.02978516 113.82226562 C34.03551993 109.73009788 34.0321648 105.63799522 34.02621269 101.54582977 C34.02257538 98.34736655 34.02375949 95.14891843 34.02634048 91.95045471 C34.02699901 90.44202161 34.02621978 88.93358705 34.02386093 87.42515564 C34.01427798 79.59074076 34.19039674 71.84021449 34.92886353 64.03552246 C35.43029078 58.39471394 35.38477159 52.73546898 35.40039062 47.07617188 C35.41027068 44.90848805 35.44149765 42.74168859 35.47265625 40.57421875 C35.47917315 39.18359927 35.48442875 37.79297317 35.48828125 36.40234375 C35.5022998 34.53739258 35.5022998 34.53739258 35.51660156 32.63476562 C35.13168299 29.17788048 34.42629482 27.97524631 32.16015625 25.43359375 C31.72703125 24.19609375 31.72703125 24.19609375 31.28515625 22.93359375 C29.84960993 19.74349082 28.03131124 18.37162337 25.16015625 16.43359375 C24.50015625 16.43359375 23.84015625 16.43359375 23.16015625 16.43359375 C23.16015625 15.77359375 23.16015625 15.11359375 23.16015625 14.43359375 C2.16909995 6.43700087 -17.41510174 18.89891819 -30.83984375 34.43359375 Z " fill="#0E0E0E" transform="translate(251.83984375,18.56640625)"/>
<path d="M0 0 C3.32985442 0.42965864 6.07749387 1.42523806 9.09765625 2.8203125 C13.83431099 4.95293183 18.61846087 6.85132179 23.5 8.625 C24.27085937 8.9240625 25.04171875 9.223125 25.8359375 9.53125 C41.82689675 15.30434391 59.69237553 14.43675121 76.4375 14.4375 C77.58797821 14.43956451 78.73845642 14.44162903 79.92379761 14.4437561 C96.86160787 14.43829748 112.63300048 13.64314328 129 9 C129.93642334 8.7613623 130.87284668 8.52272461 131.83764648 8.27685547 C138.48101926 6.56661341 144.04715991 4.22502167 150.15234375 1.109375 C153.08790241 -0.03424456 154.14540737 -0.18310827 157 1 C157.70744421 7.00766111 157.85065268 11.69669595 154.125 16.6875 C139.32581491 33.18976592 119.6172448 39.62555738 97.97991943 41.22296143 C91.87122561 41.50801486 85.77056325 41.52907473 79.65649414 41.46655273 C76.53934353 41.43728256 73.42387391 41.44607406 70.30664062 41.45898438 C59.16253586 41.44696417 48.80709044 40.82452254 38 38 C36.82920898 37.6999707 35.65841797 37.39994141 34.45214844 37.09082031 C22.21511058 33.81365403 12.67260313 28.13153377 5 18 C4.55785156 17.41734375 4.11570313 16.8346875 3.66015625 16.234375 C-0.20780959 10.78343381 -0.10794391 6.47663463 0 0 Z " fill="#F5F5F5" transform="translate(153,491)"/>
<path d="M0 0 C2.13964844 1.17797852 2.13964844 1.17797852 4 3 C4.63769531 5.48803711 4.63769531 5.48803711 4.828125 8.52734375 C4.90571045 9.69064209 4.9832959 10.85394043 5.06323242 12.05249023 C5.12486572 13.33454346 5.18649902 14.61659668 5.25 15.9375 C5.32587932 17.29175076 5.4018084 18.64599873 5.4777832 20.00024414 C6.11324752 32.30408887 6.17968873 44.61978336 6.1875 56.9375 C6.18858765 57.86690399 6.18967529 58.79630798 6.1907959 59.75387573 C6.18959179 68.84017659 6.10667866 77.92662946 5.67578125 87.00390625 C5.61946533 88.24084229 5.56314941 89.47777832 5.50512695 90.75219727 C4.96678412 94.21356736 4.08083646 96.20597233 2 99 C-0.82883747 100.41441874 -2.87376745 100.31900332 -6 100 C-7.99579566 98.25151875 -8.88222859 96.79495088 -9.27332687 94.15505791 C-9.39221826 91.78380621 -9.40513536 89.43061325 -9.38818359 87.05639648 C-9.39344055 86.15354919 -9.39869751 85.2507019 -9.40411377 84.32049561 C-9.41731419 81.33718552 -9.4085762 78.35440923 -9.3984375 75.37109375 C-9.40045804 73.29891355 -9.40336932 71.22673404 -9.40713501 69.15455627 C-9.41155827 64.81268541 -9.40512648 60.47099973 -9.39111328 56.12915039 C-9.37401083 50.55802667 -9.38386941 44.98733617 -9.40183067 39.41622829 C-9.41265928 35.13805361 -9.40922658 30.85998203 -9.4014473 26.58180428 C-9.39944329 24.52725231 -9.40191157 22.47269105 -9.40888596 20.41814995 C-9.41648636 17.54991641 -9.40491646 14.68238973 -9.38818359 11.81420898 C-9.39425629 10.96166031 -9.40032898 10.10911163 -9.40658569 9.23072815 C-9.34386043 3.44081275 -9.34386043 3.44081275 -7.65978432 1.28190708 C-5.08867614 -0.70384597 -3.14891907 -0.38558193 0 0 Z " fill="#090909" transform="translate(246,370)"/>
<path d="M0 0 C1.97265625 0.265625 1.97265625 0.265625 4.97265625 2.265625 C6.06500118 9.40715437 4.68557407 17.1056252 3.66015625 24.203125 C3.52480469 25.16605469 3.38945312 26.12898438 3.25 27.12109375 C2.39105151 33.00648152 1.31387588 38.74072125 -0.28125 44.4765625 C-1.15887846 47.75733066 -1.80503668 51.05949095 -2.46484375 54.390625 C-5.58731077 69.0759777 -5.58731077 69.0759777 -9.96875 73.0078125 C-12.85798297 74.77315029 -14.70268759 74.75047069 -18.02734375 74.265625 C-20.46484375 72.703125 -20.46484375 72.703125 -22.02734375 70.265625 C-21.61663337 64.02282725 -19.56851443 58.26922876 -17.71484375 52.328125 C-13.59778777 38.71081776 -11.40665166 24.99669481 -9.4140625 10.94140625 C-9.24519531 9.76964844 -9.07632812 8.59789062 -8.90234375 7.390625 C-8.77601563 6.42382812 -8.6496875 5.45703125 -8.51953125 4.4609375 C-7.41861738 -0.44948787 -4.42325469 0.03307106 0 0 Z " fill="#0B0B0B" transform="translate(290.02734375,390.734375)"/>
<path d="M0 0 C3.82771888 0.6249337 4.6940653 1.46317269 7.0625 4.5 C7.78092231 7.12942564 8.29586364 9.5139539 8.6875 12.1875 C8.92723133 13.63691011 9.16810732 15.08613138 9.41015625 16.53515625 C9.52117676 17.22625488 9.63219727 17.91735352 9.74658203 18.62939453 C10.11639992 20.81915086 10.59895201 22.96779546 11.125 25.125 C13.41520933 35.37368677 14.34319267 45.65941184 14.9375 56.125 C15.01105713 57.18082275 15.08461426 58.23664551 15.16040039 59.32446289 C15.23182251 60.8228772 15.23182251 60.8228772 15.3046875 62.3515625 C15.3547998 63.24697754 15.40491211 64.14239258 15.45654297 65.06494141 C14.92387019 68.35668755 13.66818364 69.49141617 11.0625 71.5 C6.66046571 71.96337203 4.7830836 71.98038907 1.0625 69.5 C0.4654447 66.64096888 0.05490649 63.93972921 -0.25390625 61.046875 C-0.35589828 60.19506653 -0.45789032 59.34325806 -0.56297302 58.46563721 C-0.88806271 55.72841103 -1.19451701 52.98947706 -1.5 50.25 C-1.81219118 47.56191542 -2.1281851 44.87429559 -2.4443512 42.18667603 C-2.6502076 40.43118878 -2.85410564 38.67547074 -3.05601501 36.91952515 C-3.77110861 30.73604501 -4.60952822 24.58405151 -5.55517578 18.43115234 C-7.1116573 6.49812734 -7.1116573 6.49812734 -4.6015625 2.2265625 C-2.9375 0.5 -2.9375 0.5 0 0 Z " fill="#101010" transform="translate(196.9375,402.5)"/>
<path d="M0 0 C0.33 0 0.66 0 1 0 C1.73772917 13.91688902 2.08624656 27.80448267 2.02734375 41.73828125 C2.02466114 42.4535284 2.02197853 43.16877556 2.01921463 43.90569687 C1.99302275 50.56164278 1.95328134 57.21747757 1.90405273 63.87329102 C1.87729798 67.56550084 1.86025643 71.25765316 1.84918404 74.94994164 C1.84300649 76.33941034 1.83304202 77.72886787 1.81910515 79.11828041 C1.79990798 81.04012865 1.79405367 82.96209622 1.78881836 84.8840332 C1.78136093 85.97222855 1.7739035 87.06042389 1.76622009 88.18159485 C1.99872006 90.98456932 2.54901217 92.62126485 4 95 C2.35 94.67 0.7 94.34 -1 94 C-0.97003433 93.30119217 -0.94006866 92.60238434 -0.90919495 91.88240051 C-0.08974927 72.20327482 0.13031688 52.57039591 0.06866455 32.87719727 C0.05816579 29.14795536 0.05381204 25.41870575 0.04882812 21.68945312 C0.03831683 14.45961572 0.02140822 7.22981426 0 0 Z " fill="#959595" transform="translate(236,375)"/>
<path d="M0 0 C0.66 0.33 1.32 0.66 2 1 C-0.05233685 3.2477975 -1.00667261 4.0022242 -4 5 C-5.61244386 6.59066286 -5.61244386 6.59066286 -7.1875 8.5625 C-10.90469215 12.94910175 -14.89905865 16.9751586 -19 21 C-20.33449731 22.33216834 -21.66814404 23.66519093 -23 25 C-23 19.95601059 -19.21254374 16.68201777 -16 13 C-13.375 10.75 -13.375 10.75 -11 9 C-10.195625 8.175 -9.39125 7.35 -8.5625 6.5 C-5.84851881 3.85221347 -3.19929052 2.00885684 0 0 Z " fill="#545051" transform="translate(231,25)"/>
<path d="M0 0 C0.33 0 0.66 0 1 0 C1.19386492 2.64551056 1.38038267 5.29117783 1.5625 7.9375 C1.61857422 8.69224609 1.67464844 9.44699219 1.73242188 10.22460938 C1.86176157 12.14745958 1.93516912 14.07389548 2 16 C1.67 16.33 1.34 16.66 1 17 C0.78468792 18.57222677 0.62906677 20.1527309 0.5 21.734375 C0.4175 22.70117188 0.335 23.66796875 0.25 24.6640625 C0.1675 25.68242187 0.085 26.70078125 0 27.75 C-0.16411339 29.74500335 -0.33069964 31.73980513 -0.5 33.734375 C-0.5721875 34.62350586 -0.644375 35.51263672 -0.71875 36.42871094 C-0.99965701 38.99686422 -1.45498418 41.47589547 -2 44 C-2.33 44 -2.66 44 -3 44 C-3.25073752 34.31874567 -2.46586204 24.86540505 -1.5 15.25 C-1.35494178 13.76307215 -1.21040724 12.27609311 -1.06640625 10.7890625 C-0.71695601 7.19209974 -0.36048241 3.59587593 0 0 Z " fill="#AFAEAF" transform="translate(206,128)"/>
<path d="M0 0 C0.66 0.33 1.32 0.66 2 1 C0.57363718 2.84201153 -0.86644632 4.67340587 -2.3125 6.5 C-3.11300781 7.5209375 -3.91351563 8.541875 -4.73828125 9.59375 C-5.48464844 10.3878125 -6.23101562 11.181875 -7 12 C-7.99 12 -8.98 12 -10 12 C-10.28875 12.928125 -10.5775 13.85625 -10.875 14.8125 C-12 18 -12 18 -14 21 C-14.66 21 -15.32 21 -16 21 C-13.91400026 11.9606678 -7.01014766 5.57950528 0 0 Z " fill="#D1D1D1" transform="translate(101,72)"/>
<path d="M0 0 C0 0.66 0 1.32 0 2 C-0.99 2.33 -1.98 2.66 -3 3 C-4.38576923 4.62332967 -5.72641268 6.28724465 -7 8 C-7.66 7.67 -8.32 7.34 -9 7 C-9.268125 7.598125 -9.53625 8.19625 -9.8125 8.8125 C-10.98493467 10.97224808 -12.19369282 12.35790256 -14 14 C-14.99 13.34 -15.98 12.68 -17 12 C-15.44233138 10.55726615 -13.87864043 9.12103292 -12.3125 7.6875 C-11.44238281 6.88699219 -10.57226562 6.08648437 -9.67578125 5.26171875 C-3.4507772 0 -3.4507772 0 0 0 Z " fill="#666363" transform="translate(100,269)"/>
<path d="M0 0 C0.33 0 0.66 0 1 0 C1.01981934 0.76666992 1.03963867 1.53333984 1.06005859 2.32324219 C1.15535446 5.79917219 1.26501598 9.27450506 1.375 12.75 C1.42140625 14.55984375 1.42140625 14.55984375 1.46875 16.40625 C1.50742188 17.56640625 1.54609375 18.7265625 1.5859375 19.921875 C1.6173584 20.99018555 1.6487793 22.05849609 1.68115234 23.15917969 C1.99200148 25.92873598 2.57670532 27.63283621 4 30 C2.35 29.67 0.7 29.34 -1 29 C-0.67 19.43 -0.34 9.86 0 0 Z " fill="#C8C8C8" transform="translate(236,440)"/>
<path d="M0 0 C0.66 0.99 1.32 1.98 2 3 C1.360625 3.226875 0.72125 3.45375 0.0625 3.6875 C-2.2416258 4.82571387 -2.2416258 4.82571387 -2.625 7.375 C-2.810625 8.674375 -2.810625 8.674375 -3 10 C-4.0625 12.3125 -4.0625 12.3125 -5 14 C-5.66 14 -6.32 14 -7 14 C-5.53967505 8.68972746 -3.01679014 4.53669968 0 0 Z " fill="#646162" transform="translate(72,294)"/>
<path d="M0 0 C0 3.90689726 -1.23150967 4.76963412 -3.8125 7.625 C-4.52019531 8.42164063 -5.22789063 9.21828125 -5.95703125 10.0390625 C-8 12 -8 12 -11 13 C-9.46356148 9.31930113 -7.21849055 7.01224796 -4.375 4.25 C-3.55773437 3.45078125 -2.74046875 2.6515625 -1.8984375 1.828125 C-0.95871094 0.92320312 -0.95871094 0.92320312 0 0 Z " fill="#C5C5C5" transform="translate(97,288)"/>
<path d="M0 0 C0 3.61656862 -1.02130767 5.0319615 -3 8 C-3.66 8.66 -4.32 9.32 -5 10 C-5.99 9.67 -6.98 9.34 -8 9 C-6.85459775 7.68712379 -5.70866567 6.37470979 -4.5625 5.0625 C-3.92441406 4.33160156 -3.28632812 3.60070312 -2.62890625 2.84765625 C-1.77458541 1.87860647 -0.91348825 0.91348825 0 0 Z " fill="#615F5F" transform="translate(82,282)"/>
<path d="M0 0 C1.90318884 2.85478326 2.4619099 4.41941308 3.125 7.6875 C3.29257813 8.49574219 3.46015625 9.30398438 3.6328125 10.13671875 C3.75398437 10.75160156 3.87515625 11.36648438 4 12 C-0.875 7.375 -0.875 7.375 -2 4 C-1.34 4 -0.68 4 0 4 C0 2.68 0 1.36 0 0 Z " fill="#313131" transform="translate(218,259)"/>
<path d="M0 0 C0.33 0.66 0.66 1.32 1 2 C-0.43775696 5.21783702 -2.04417512 8.06626269 -4 11 C-4.66 11 -5.32 11 -6 11 C-4.74194623 6.49197399 -3.09592835 3.5087188 0 0 Z " fill="#C3C3C3" transform="translate(91,82)"/>
<path d="M0 0 C0.33 0.99 0.66 1.98 1 3 C-0.65 4.65 -2.3 6.3 -4 8 C-4.99 7.34 -5.98 6.68 -7 6 C-4.69 4.02 -2.38 2.04 0 0 Z " fill="#575355" transform="translate(90,275)"/>
<path d="M0 0 C1 3 1 3 0.29296875 5.0078125 C-0.25423828 6.05582031 -0.25423828 6.05582031 -0.8125 7.125 C-1.16957031 7.82882812 -1.52664063 8.53265625 -1.89453125 9.2578125 C-3 11 -3 11 -5 12 C-5 10.35 -5 8.7 -5 7 C-4.01 7 -3.02 7 -2 7 C-1.34 4.69 -0.68 2.38 0 0 Z " fill="#727071" transform="translate(322,506)"/>
<path d="M0 0 C2.97550031 3.0684847 3.96474513 4.46236331 4.25 8.8125 C4.1675 9.864375 4.085 10.91625 4 12 C1.49484216 9.49484216 0.94900914 7.38931835 0 4 C0 2.68 0 1.36 0 0 Z " fill="#969696" transform="translate(123,258)"/>
<path d="M0 0 C0 3.63 0 7.26 0 11 C-0.33 11 -0.66 11 -1 11 C-1.02578125 10.37351562 -1.0515625 9.74703125 -1.078125 9.1015625 C-1.13484375 8.28429687 -1.1915625 7.46703125 -1.25 6.625 C-1.29640625 5.81289063 -1.3428125 5.00078125 -1.390625 4.1640625 C-1.7922092 1.81161073 -1.7922092 1.81161073 -4.046875 0.7109375 C-4.69140625 0.47632813 -5.3359375 0.24171875 -6 0 C-4 -1 -4 -1 0 0 Z " fill="#A2A2A2" transform="translate(310,492)"/>
<path d="M0 0 C1.10914742 3.32744227 1.03211839 5.64561525 0 9 C-1.5625 10.8125 -1.5625 10.8125 -3 12 C-2.40075776 7.80530429 -1.42500059 3.99000166 0 0 Z " fill="#BCBBBC" transform="translate(79,310)"/>
<path d="M0 0 C0.66 0.33 1.32 0.66 2 1 C1.04882866 2.1725131 0.08882991 3.33787015 -0.875 4.5 C-1.40867187 5.1496875 -1.94234375 5.799375 -2.4921875 6.46875 C-2.98976563 6.9740625 -3.48734375 7.479375 -4 8 C-4.66 8 -5.32 8 -6 8 C-4.55746343 4.63408134 -2.66735273 2.48952921 0 0 Z " fill="#564F50" transform="translate(88,64)"/>
<path d="M0 0 C0.93423645 3.01031744 1.04449911 3.86650268 0 7 C-2.5625 8.1875 -2.5625 8.1875 -5 9 C-3.7508258 5.54074837 -2.32472205 2.85306797 0 0 Z " fill="#C0C0C0" transform="translate(85,301)"/>
<path d="M0 0 C0.33 0.99 0.66 1.98 1 3 C0.67 3.66 0.34 4.32 0 5 C-0.66 5 -1.32 5 -2 5 C-2.33 6.32 -2.66 7.64 -3 9 C-3.66 9 -4.32 9 -5 9 C-3.7508258 5.54074837 -2.32472205 2.85306797 0 0 Z " fill="#B3B3B3" transform="translate(222,52)"/>
<path d="M0 0 C0.33 0.66 0.66 1.32 1 2 C1.66 2.33 2.32 2.66 3 3 C1.02 5.97 1.02 5.97 -1 9 C-2.25541557 5.23375329 -1.37061958 3.62811066 0 0 Z " fill="#333333" transform="translate(108,356)"/>
<path d="M0 0 C1 2 1 2 0.25 4.5625 C-1 7 -1 7 -4 8 C-2.87548273 5.0280615 -1.77706209 2.66559313 0 0 Z " fill="#B6B6B6" transform="translate(118,346)"/>
</svg>
